<?xml version="1.0" encoding="UTF-8" standalone="no"?>
<!DOCTYPE svg PUBLIC "-//W3C//DTD SVG 1.1//EN" "http://www.w3.org/Graphics/SVG/1.1/DTD/svg11.dtd"
[
<!ATTLIST g
  xmlns:vectornator CDATA #FIXED "http://vectornator.io"
  vectornator:layerName CDATA #IMPLIED >
<!ATTLIST g
  xmlns:vectornator CDATA #FIXED "http://vectornator.io"
  vectornator:mask CDATA #IMPLIED >
<!ATTLIST text
  xmlns:vectornator CDATA #FIXED "http://vectornator.io"
  vectornator:width CDATA #IMPLIED >

<!ATTLIST path
  xmlns:vectornator CDATA #FIXED "http://vectornator.io"
  vectornator:blendMode CDATA #IMPLIED >
<!ATTLIST path
  xmlns:vectornator CDATA #FIXED "http://vectornator.io"
  vectornator:shadowColor CDATA #IMPLIED >
<!ATTLIST path
  xmlns:vectornator CDATA #FIXED "http://vectornator.io"
  vectornator:shadowOpacity CDATA #IMPLIED >
<!ATTLIST path
  xmlns:vectornator CDATA #FIXED "http://vectornator.io"
  vectornator:shadowRadius CDATA #IMPLIED >
<!ATTLIST path
  xmlns:vectornator CDATA #FIXED "http://vectornator.io"
  vectornator:shadowOffset CDATA #IMPLIED >
<!ATTLIST path
  xmlns:vectornator CDATA #FIXED "http://vectornator.io"
  vectornator:shadowAngle CDATA #IMPLIED >

<!ATTLIST image
  xmlns:vectornator CDATA #FIXED "http://vectornator.io"
  vectornator:blendMode CDATA #IMPLIED >
<!ATTLIST image
  xmlns:vectornator CDATA #FIXED "http://vectornator.io"
  vectornator:shadowColor CDATA #IMPLIED >
<!ATTLIST image
  xmlns:vectornator CDATA #FIXED "http://vectornator.io"
  vectornator:shadowOpacity CDATA #IMPLIED >
<!ATTLIST image
  xmlns:vectornator CDATA #FIXED "http://vectornator.io"
  vectornator:shadowRadius CDATA #IMPLIED >
<!ATTLIST image
  xmlns:vectornator CDATA #FIXED "http://vectornator.io"
  vectornator:shadowOffset CDATA #IMPLIED >
<!ATTLIST image
  xmlns:vectornator CDATA #FIXED "http://vectornator.io"
  vectornator:shadowAngle CDATA #IMPLIED >

<!ATTLIST g
  xmlns:vectornator CDATA #FIXED "http://vectornator.io"
  vectornator:blendMode CDATA #IMPLIED >
<!ATTLIST g
  xmlns:vectornator CDATA #FIXED "http://vectornator.io"
  vectornator:shadowColor CDATA #IMPLIED >
<!ATTLIST g
  xmlns:vectornator CDATA #FIXED "http://vectornator.io"
  vectornator:shadowOpacity CDATA #IMPLIED >
<!ATTLIST g
  xmlns:vectornator CDATA #FIXED "http://vectornator.io"
  vectornator:shadowRadius CDATA #IMPLIED >
<!ATTLIST g
  xmlns:vectornator CDATA #FIXED "http://vectornator.io"
  vectornator:shadowOffset CDATA #IMPLIED >
<!ATTLIST g
  xmlns:vectornator CDATA #FIXED "http://vectornator.io"
  vectornator:shadowAngle CDATA #IMPLIED >

<!ENTITY % SVG.filter.extra.content  "| feDropShadow" >
<!ELEMENT feDropShadow EMPTY>
<!ATTLIST feDropShadow
  xmlns:svg CDATA #FIXED "http://www.w3.org/Graphics/SVG/1.1/DTD/svg11.dtd"
  dx CDATA #IMPLIED>
<!ATTLIST feDropShadow
  xmlns:svg CDATA #FIXED "http://www.w3.org/Graphics/SVG/1.1/DTD/svg11.dtd"
  dy CDATA #IMPLIED>
<!ATTLIST feDropShadow
  xmlns:svg CDATA #FIXED "http://www.w3.org/Graphics/SVG/1.1/DTD/svg11.dtd"
  stdDeviation CDATA #IMPLIED>
<!ATTLIST feDropShadow
  xmlns:svg CDATA #FIXED "http://www.w3.org/Graphics/SVG/1.1/DTD/svg11.dtd"
  flood-opacity CDATA #IMPLIED>
<!ATTLIST feDropShadow
  xmlns:svg CDATA #FIXED "http://www.w3.org/Graphics/SVG/1.1/DTD/svg11.dtd"
  in CDATA #IMPLIED>
<!ATTLIST feDropShadow
  xmlns:svg CDATA #FIXED "http://www.w3.org/Graphics/SVG/1.1/DTD/svg11.dtd"
  result CDATA #IMPLIED>
<!ATTLIST feDropShadow
  xmlns:svg CDATA #FIXED "http://www.w3.org/Graphics/SVG/1.1/DTD/svg11.dtd"
  flood-color CDATA #IMPLIED>
]
>
<!-- Created with Vectornator (http://vectornator.io/) -->
<svg height="100%" stroke-miterlimit="10" style="fill-rule:nonzero;clip-rule:evenodd;stroke-linecap:round;stroke-linejoin:round;" version="1.1" viewBox="0 0 100.09 95.89" width="100%" xml:space="preserve" xmlns="http://www.w3.org/2000/svg" xmlns:vectornator="http://vectornator.io" xmlns:xlink="http://www.w3.org/1999/xlink">
<defs/>
<clipPath id="ArtboardFrame">
<rect height="95.89" width="100.09" x="0" y="0"/>
</clipPath>
<g clip-path="url(#ArtboardFrame)" id="Untitled" vectornator:layerName="Untitled">
<g opacity="1">
<g opacity="0">
<path d="M54.302 31.545C61.307 27.143 65.253 22.087 65.293 22.037C69.272 17.269 68.02 13.66 67.964 13.51C66.472 8.28699 60.166 6.867 59.899 6.811L53.496 5.306C46.431 3.62399 42.137 0.21698 42.095 0.181976L41.891 0.0159912L41.689 0.181976C41.647 0.21698 37.352 3.62399 30.287 5.306L23.878 6.811C23.615 6.867 17.312 8.28699 15.813 13.535C15.764 13.66 14.51 17.269 18.5 22.045C18.531 22.088 22.515 27.191 29.584 31.609L29.587 30.846C22.833 26.548 19.043 21.689 19.003 21.642C16.695 18.878 16.25 16.527 16.25 15.123C16.25 14.252 16.42 13.745 16.426 13.732C17.825 8.84198 23.959 7.453 24.02 7.44098L30.436 5.93298C36.794 4.42099 40.958 1.52899 41.891 0.835999C42.823 1.52899 46.992 4.42099 53.346 5.93298L59.759 7.44C59.826 7.453 65.958 8.84198 67.35 13.709C67.36 13.732 67.533 14.246 67.533 15.129C67.533 16.535 67.087 18.878 64.789 21.633C64.742 21.689 60.988 26.497 54.302 30.781L54.302 31.545Z" fill="#237f3c" fill-rule="evenodd" opacity="1" stroke="none"/>
<path d="M41.623 0.40799C41.461 0.651978 37.685 6.51398 37.123 19.884L37.768 19.91C38.237 8.77698 41.017 2.84598 41.891 1.23499C42.765 2.84598 45.547 8.77698 46.016 19.91L46.661 19.884C46.099 6.51398 42.323 0.651978 42.162 0.40799L41.891 0L41.623 0.40799Z" fill="#237f3c" fill-rule="evenodd" opacity="1" stroke="none"/>
<path d="M41.891 12.4L40.775 11.279L40.775 7.62598L43.01 7.62598L43.01 11.279L41.891 12.4Z" fill="#237f3c" fill-rule="evenodd" opacity="1" stroke="none"/>
<path d="M41.676 18L42.105 18L42.105 11.717L41.676 11.717L41.676 18Z" fill="#237f3c" fill-rule="evenodd" opacity="1" stroke="none"/>
<path d="M29.587 45.275C21.094 49.295 15.493 49.768 13.821 49.811C14.777 48.25 18.339 42.796 29.584 35.805L29.584 35.051C16.429 43.091 13.101 49.729 12.972 49.99L12.755 50.426L13.24 50.457C13.506 50.47 19.417 50.763 29.587 45.99L29.587 45.275Z" fill="#237f3c" fill-rule="evenodd" opacity="1" stroke="none"/>
<path d="M23.491 44.228L23.084 45.756L19.915 47.584L18.797 45.645L21.963 43.816L23.491 44.228Z" fill="#237f3c" fill-rule="evenodd" opacity="1" stroke="none"/>
<path d="M29.587 40.462L22.794 44.381L23.007 44.754L29.587 40.955L29.587 40.462Z" fill="#237f3c" fill-rule="evenodd" opacity="1" stroke="none"/>
<path d="M45.133 51.684C43.776 60.733 40.511 63.622 40.478 63.649C38.137 65.941 35.533 65.675 35.508 65.675L35.488 65.67L35.467 65.67C31.679 65.723 28.051 61.833 28.015 61.795L25.105 58.777C18.432 52.008 14.595 50.335 13.535 49.973C13.602 49.613 13.691 48.924 13.691 47.836C13.691 45.602 13.309 41.707 11.559 35.568L10.363 31.557C10.35 31.521 9.713 29.507 9.713 27.207C9.713 25.84 9.936 24.375 10.644 23.156L10.657 23.14L10.664 23.12C10.674 23.097 11.723 20.697 14.85 19.793C14.906 19.774 19.744 18.314 29.587 22.461L29.587 21.765C19.661 17.636 14.865 19.109 14.659 19.175C11.286 20.152 10.151 22.679 10.076 22.856C9.302 24.198 9.059 25.776 9.059 27.225C9.059 29.584 9.7 31.613 9.744 31.748L10.937 35.75C12.673 41.825 13.036 45.68 13.036 47.85C13.036 49.398 12.851 50.084 12.846 50.104L12.755 50.431L13.082 50.508C13.12 50.518 17.038 51.516 24.646 59.229L27.546 62.24C27.696 62.4 31.387 66.36 35.461 66.316C35.697 66.34 38.42 66.568 40.912 64.127C41.042 64.02 44.399 61.084 45.786 51.684L45.133 51.684Z" fill="#237f3c" fill-rule="evenodd" opacity="1" stroke="none"/>
<path d="M54.3 45.26C62.793 49.282 68.393 49.754 70.067 49.795C69.109 48.234 65.548 42.783 54.302 35.791L54.302 35.035C67.458 43.079 70.785 49.713 70.916 49.975L71.134 50.412L70.647 50.441C70.377 50.459 64.467 50.747 54.3 45.975L54.3 45.26Z" fill="#237f3c" fill-rule="evenodd" opacity="1" stroke="none"/>
<path d="M60.395 44.213L60.804 45.74L63.972 47.568L65.089 45.63L61.923 43.803L60.395 44.213Z" fill="#237f3c" fill-rule="evenodd" opacity="1" stroke="none"/>
<path d="M54.3 40.446L61.095 44.367L60.878 44.74L54.3 40.943L54.3 40.446Z" fill="#237f3c" fill-rule="evenodd" opacity="1" stroke="none"/>
<path d="M38.751 51.668C40.11 60.719 43.376 63.609 43.409 63.635C45.749 65.926 48.352 65.662 48.379 65.658L48.4 65.656L48.419 65.656C52.207 65.71 55.834 61.818 55.869 61.783L58.781 58.762C65.455 51.996 69.292 50.322 70.352 49.957C70.285 49.599 70.194 48.912 70.194 47.82C70.194 45.59 70.577 41.691 72.329 35.555L73.525 31.543C73.536 31.505 74.171 29.494 74.171 27.191C74.171 25.826 73.949 24.359 73.24 23.143L73.23 23.124L73.221 23.106C73.211 23.081 72.164 20.686 69.038 19.777C68.979 19.759 64.143 18.297 54.3 22.449L54.3 21.746C64.226 17.62 69.024 19.094 69.228 19.163C72.599 20.139 73.735 22.663 73.813 22.846C74.583 24.187 74.827 25.762 74.827 27.209C74.827 29.573 74.185 31.599 74.14 31.732L72.95 35.736C71.215 41.809 70.848 45.668 70.848 47.836C70.848 49.387 71.036 50.074 71.038 50.09L71.135 50.416L70.803 50.494C70.766 50.502 66.85 51.501 59.241 59.215L56.34 62.223C56.19 62.387 52.499 66.346 48.425 66.305C48.19 66.327 45.467 66.553 42.974 64.113C42.846 64.004 39.486 61.071 38.102 51.668L38.751 51.668Z" fill="#237f3c" fill-rule="evenodd" opacity="1" stroke="none"/>
<path d="M17.529 19.529C17.529 19.529 22.841 20.555 29.587 24.022L29.587 24.61C29.587 24.61 20.612 20.27 17.529 19.529" fill="#237f3c" fill-rule="evenodd" opacity="1" stroke="none"/>
<path d="M17.529 19.529L29.587 26.195L29.587 26.932C29.587 26.932 18.766 20.581 17.529 19.529" fill="#237f3c" fill-rule="evenodd" opacity="1" stroke="none"/>
<path d="M17.529 19.529C17.529 19.529 18.824 21.663 29.587 28.627L29.587 29.328C29.587 29.328 20.539 23.587 17.529 19.529" fill="#237f3c" fill-rule="evenodd" opacity="1" stroke="none"/>
<path d="M66.359 19.529C66.359 19.529 61.048 20.555 54.302 24.022L54.302 24.61C54.302 24.61 63.273 20.27 66.359 19.529" fill="#237f3c" fill-rule="evenodd" opacity="1" stroke="none"/>
<path d="M66.359 19.529L54.302 26.195L54.302 26.932C54.302 26.932 65.123 20.581 66.359 19.529" fill="#237f3c" fill-rule="evenodd" opacity="1" stroke="none"/>
<path d="M66.359 19.529C66.359 19.529 65.063 21.663 54.302 28.627L54.302 29.328C54.302 29.328 63.348 23.587 66.359 19.529" fill="#237f3c" fill-rule="evenodd" opacity="1" stroke="none"/>
<path d="M41.891 61.787C41.891 61.787 40.582 58.469 39.931 51.684L40.49 51.684C40.49 51.684 40.657 55.473 41.891 61.787" fill="#237f3c" fill-rule="evenodd" opacity="1" stroke="none"/>
<path d="M42.147 51.684L41.891 61.787L41.638 51.684L42.147 51.684Z" fill="#237f3c" fill-rule="evenodd" opacity="1" stroke="none"/>
<path d="M41.891 61.787C41.891 61.787 43.004 58.252 43.47 51.684L43.965 51.684C43.965 51.684 43.014 59.879 41.891 61.787" fill="#237f3c" fill-rule="evenodd" opacity="1" stroke="none"/>
<path d="M32.59 25.683C32.59 26.149 32.211 26.527 31.746 26.527C31.278 26.527 30.901 26.149 30.901 25.683L30.901 21.867C30.901 21.4 31.278 21.023 31.746 21.023L40.684 21.023C40.918 21.023 41.106 20.834 41.106 20.602L41.106 19.998C41.106 19.529 41.485 19.152 41.951 19.152C42.418 19.152 42.794 19.529 42.794 19.998L42.794 20.602C42.794 20.834 42.986 21.023 43.218 21.023L52.157 21.023C52.622 21.023 53.003 21.4 53.003 21.867L53.003 25.683C53.003 26.149 52.622 26.527 52.157 26.527C51.69 26.527 51.313 26.149 51.313 25.683L51.313 23.135C51.313 22.901 51.126 22.713 50.89 22.713L47.653 22.713C47.418 22.713 47.229 22.901 47.229 23.135L47.229 25.683C47.229 26.149 46.851 26.527 46.387 26.527C45.919 26.527 45.54 26.149 45.54 25.683L45.543 23.135C45.543 22.901 45.352 22.713 45.118 22.713L38.783 22.713C38.55 22.713 38.362 22.901 38.362 23.135L38.362 25.683C38.362 26.149 37.983 26.527 37.519 26.527C37.05 26.527 36.671 26.149 36.671 25.683L36.671 23.135C36.671 22.901 36.483 22.713 36.249 22.713L33.014 22.713C32.779 22.713 32.59 22.901 32.59 23.135L32.59 25.683Z" fill="#237f3c" fill-rule="evenodd" opacity="1" stroke="none"/>
<path d="M30.901 47.072C30.901 47.538 31.278 47.916 31.746 47.916C32.211 47.916 32.59 47.538 32.59 47.072L32.59 38.986C32.59 38.75 32.779 38.563 33.014 38.563L50.89 38.563C51.126 38.563 51.313 38.75 51.313 38.986L51.313 47.072C51.313 47.538 51.69 47.916 52.157 47.916C52.622 47.916 53.003 47.538 53.003 47.072L53.003 37.716C53.003 37.248 52.622 36.874 52.157 36.874L31.746 36.874C31.278 36.874 30.901 37.248 30.901 37.716L30.901 47.072Z" fill="#237f3c" fill-rule="evenodd" opacity="1" stroke="none"/>
<path d="M48.189 34.361C47.722 34.361 47.341 34.738 47.341 35.209C47.341 35.674 47.722 36.052 48.189 36.052L52.157 36.052C52.622 36.052 53.003 35.674 53.003 35.209L53.004 28.299C53.004 27.829 52.622 27.451 52.157 27.451C51.69 27.451 51.313 27.829 51.313 28.299L51.313 28.52C51.313 28.753 51.126 28.941 50.89 28.941L48.189 28.941C47.722 28.941 47.341 29.318 47.341 29.787C47.341 30.252 47.722 30.631 48.189 30.631L50.785 30.631C51.078 30.631 51.313 30.867 51.313 31.16C51.313 31.451 51.078 31.688 50.785 31.688L48.189 31.688C47.722 31.688 47.341 32.064 47.341 32.531C47.341 32.997 47.722 33.377 48.189 33.377L50.819 33.377C51.091 33.377 51.313 33.598 51.313 33.868C51.313 34.142 51.091 34.361 50.819 34.361L48.189 34.361Z" fill="#237f3c" fill-rule="evenodd" opacity="1" stroke="none"/>
<path d="M30.901 28.299C30.901 27.829 31.278 27.451 31.746 27.451C32.211 27.451 32.59 27.829 32.59 28.299L32.59 28.52C32.59 28.753 32.779 28.941 33.014 28.941L35.636 28.941C36.102 28.941 36.482 29.318 36.482 29.787C36.482 30.252 36.102 30.631 35.636 30.631L33.117 30.631C32.826 30.631 32.59 30.867 32.59 31.16C32.59 31.451 32.826 31.688 33.117 31.688L35.636 31.688C36.102 31.688 36.482 32.064 36.482 32.531C36.482 32.997 36.102 33.377 35.636 33.377L33.081 33.377C32.809 33.377 32.59 33.598 32.59 33.868C32.59 34.142 32.809 34.361 33.081 34.361L35.636 34.361C36.102 34.361 36.482 34.738 36.482 35.209C36.482 35.674 36.102 36.052 35.636 36.052L31.746 36.052C31.278 36.052 30.901 35.674 30.901 35.205L30.901 28.299Z" fill="#237f3c" fill-rule="evenodd" opacity="1" stroke="none"/>
<path d="M44.697 41.802C44.697 41.568 44.507 41.379 44.273 41.379L39.629 41.379C39.396 41.379 39.206 41.568 39.206 41.802L39.206 42.434C39.206 42.667 39.396 42.856 39.629 42.856L44.273 42.856C44.507 42.856 44.697 42.667 44.697 42.434L44.697 41.802ZM49.764 46.654C49.764 47.123 49.386 47.499 48.918 47.499L42.794 47.499L42.794 49.542C42.794 50.01 42.418 50.385 41.951 50.385L39.448 50.385C38.981 50.385 38.602 50.01 38.602 49.542C38.602 49.076 38.981 48.698 39.448 48.698L40.684 48.698C40.918 48.698 41.106 48.51 41.106 48.274L41.106 47.499L34.984 47.499C34.518 47.499 34.138 47.123 34.138 46.654L34.138 40.336C34.138 39.87 34.518 39.49 34.984 39.49C35.45 39.49 35.828 39.87 35.828 40.336L35.828 45.39C35.828 45.623 36.016 45.813 36.249 45.813L41.106 45.813L41.106 44.971C41.106 44.733 40.918 44.547 40.684 44.547L38.362 44.547C37.895 44.547 37.519 44.166 37.519 43.701L37.519 40.533C37.519 40.065 37.895 39.689 38.362 39.689L45.543 39.689C46.007 39.689 46.387 40.065 46.387 40.533L46.387 43.701C46.387 44.166 46.007 44.547 45.54 44.547L43.218 44.547C42.986 44.547 42.794 44.733 42.794 44.971L42.794 45.813L47.653 45.813C47.885 45.813 48.075 45.623 48.075 45.39L48.075 40.336C48.075 39.87 48.451 39.49 48.918 39.49C49.386 39.49 49.764 39.87 49.764 40.336L49.764 46.654Z" fill="#237f3c" fill-rule="evenodd" opacity="1" stroke="none"/>
<path d="M40.951 31.516C40.951 31.516 40.806 31.598 40.806 31.732C40.806 31.869 40.951 31.949 40.951 31.949L41.567 32.304C41.567 32.304 41.787 32.434 41.948 32.434C42.106 32.434 42.326 32.304 42.326 32.304L42.942 31.949C42.942 31.949 43.085 31.869 43.085 31.732C43.085 31.598 42.942 31.516 42.942 31.516L42.326 31.161C42.326 31.161 42.106 31.035 41.948 31.035C41.787 31.035 41.567 31.161 41.567 31.161L40.951 31.516ZM39.271 36.02C38.867 36.254 38.351 36.113 38.117 35.711C37.885 35.305 38.021 34.787 38.425 34.557L39.884 33.715C39.884 33.715 40.028 33.635 40.028 33.498C40.028 33.361 39.884 33.284 39.884 33.284L38.461 32.463C38.461 32.463 38.009 32.192 38.009 31.732C38.009 31.272 38.461 31.002 38.461 31.002L39.884 30.184C39.884 30.184 40.028 30.104 40.028 29.969C40.028 29.834 39.884 29.752 39.884 29.752L38.353 28.869C37.946 28.633 37.809 28.116 38.041 27.713C38.274 27.311 38.792 27.169 39.197 27.404L41.567 28.773C41.567 28.773 41.787 28.898 41.948 28.898C42.106 28.898 42.326 28.773 42.326 28.773L44.623 27.447C45.028 27.215 45.543 27.354 45.774 27.756C46.009 28.16 45.872 28.678 45.467 28.909L44.007 29.752C44.007 29.752 43.863 29.834 43.863 29.969C43.863 30.104 44.007 30.184 44.007 30.184L45.436 31.002C45.436 31.002 45.889 31.272 45.889 31.732C45.889 32.192 45.436 32.463 45.436 32.463L44.007 33.284C44.007 33.284 43.863 33.361 43.863 33.498C43.863 33.635 44.007 33.715 44.007 33.715L45.448 34.545C45.849 34.777 45.988 35.295 45.755 35.696C45.523 36.101 45.005 36.241 44.602 36.009L42.326 34.693C42.326 34.693 42.106 34.567 41.948 34.567C41.787 34.567 41.567 34.693 41.567 34.693L39.271 36.02Z" fill="#237f3c" fill-rule="evenodd" opacity="1" stroke="none"/>
<path d="M15.343 86.162C15.135 85.954 15.092 85.637 15.092 85.406L15.092 83.753C15.092 83.738 15.086 83.727 15.08 83.727C15.072 83.727 15.065 83.738 15.063 83.753L15.02 84.021C15.02 84.022 15.021 84.022 15.021 84.022C14.857 84.924 14.371 86.713 13.049 86.713L11.648 86.713C10.808 86.713 10.282 86.293 10.282 85.265L10.282 80.342C10.845 80.166 12.918 79.489 14.304 78.707C14.654 78.51 15.296 78.344 15.296 78.344C15.296 78.344 14.817 77.078 13.421 76.582C12.221 78.621 10.745 79.898 10.282 80.272L10.282 74.768C10.282 74.311 10.491 73.878 10.491 73.878C10.491 73.878 10.02 73.242 8.521 73.193C8.521 73.193 8.576 73.758 8.576 76.776L8.576 85.257C8.576 87.458 9.172 88.404 11.25 88.404L14.196 88.404C15.989 88.404 16.123 86.943 15.343 86.162" fill="#151716" fill-rule="evenodd" opacity="1" stroke="none"/>
<path d="M4.692 73.193C4.692 73.193 4.801 73.775 4.801 77.179L4.801 78.777L1.432 78.777C0.576996 78.777 0.0130005 78.568 0.0130005 78.568C0.0130005 78.568 0.110001 79.236 0.362999 79.48C0.615997 79.723 1.665 79.45 2.146 79.45L4.801 79.45L4.801 84.731C2.475 85.766 0 86.084 0 86.084C0.579002 87.434 1.68 88.041 1.68 88.041C1.68 88.041 1.808 87.744 2.15 87.489C3.251 86.672 4.228 85.693 4.801 85.078L4.801 88.056L4.801 88.977C5.715 88.977 6.553 88.695 6.553 87.937L6.553 86.579L6.553 81.038L6.553 74.829C6.553 74.373 6.737 73.939 6.737 73.939C6.737 73.939 6.072 73.219 4.692 73.193" fill="#151716" fill-rule="evenodd" opacity="1" stroke="none"/>
<path d="M49.855 87.076C49.855 87.076 44.908 87.582 41.342 87.261C39.1 87.059 38.477 85.924 38.326 85.109L38.326 81.348C38.324 80.645 38.63 80.348 38.63 80.348C38.63 80.348 38.369 79.365 36.934 79.049C36.753 79.77 36.391 79.842 36.365 79.853L35.604 79.853C34.719 79.853 34.136 79.643 34.136 79.643C34.136 79.643 34.282 80.314 34.534 80.557C34.788 80.799 35.589 80.525 36.071 80.525L36.779 80.525L36.779 86.398C36.721 86.429 36.662 86.457 36.6 86.486C35.475 87 34.238 87.291 34.238 87.291C34.905 88.527 36.087 88.916 36.119 88.943C36.256 88.342 36.595 88.104 37.141 87.397C37.385 87.079 37.651 86.607 37.87 86.182C38.206 87.283 38.952 88.494 40.614 88.73C43.776 89.18 48.896 88.912 48.896 88.912C48.896 88.912 48.664 87.944 49.855 87.076M46.465 78.507L46.465 80.242L41.525 80.242L41.525 78.508L46.465 78.507ZM46.465 82.652L41.525 82.652L41.525 80.916L46.465 80.916L46.465 82.652ZM46.465 85.061L41.525 85.061L41.525 83.327L46.465 83.327L46.465 85.061ZM40.311 76.392L43.021 76.392C43.017 76.481 43.007 76.573 42.998 76.667C42.932 77.251 42.789 77.637 42.704 77.831L41.154 77.831L41.154 77.847C40.88 77.637 40.434 77.411 39.752 77.371C39.752 77.371 39.896 78.188 39.896 79.273L39.896 86.47C40.887 86.47 41.45 86.366 41.513 85.734L46.465 85.734L46.465 86.47C47.519 86.47 48.095 86.361 48.095 85.617L48.095 79.326C48.095 78.623 48.425 78.406 48.425 78.406C48.425 78.406 48.004 77.665 47.011 77.23C46.804 77.648 46.404 77.831 46.404 77.831L42.996 77.831C43.451 77.626 44.253 77.184 44.926 76.392L46.77 76.391C48.418 76.391 49.421 76.418 49.421 76.418C49.421 76.418 49.683 76.224 49.683 75.988C49.683 75.988 49.232 75.275 48.166 74.748C47.804 75.463 47.223 75.702 47.204 75.719L45.489 75.719C45.881 75.522 46.306 75.267 46.692 74.939C46.996 74.68 47.287 74.567 47.287 74.567C47.287 74.567 47.04 73.545 45.581 73.154C45.581 73.154 45.462 73.967 45.047 74.845C44.882 75.193 44.702 75.488 44.548 75.719L42.92 75.719C43.032 75.502 43.084 75.217 43.021 74.865C42.764 73.396 39.955 73.217 39.955 73.217C39.955 73.217 41.053 73.593 41.328 75.16C41.368 75.389 41.439 75.57 41.53 75.719L39.843 75.719C38.983 75.719 38.3 75.51 38.3 75.51C38.3 75.51 38.521 76.178 38.773 76.422C39.027 76.666 39.828 76.392 40.311 76.392M36.163 76.121C36.673 77.808 38.3 77.326 37.861 75.783C37.416 74.221 34.646 74.102 34.646 74.102C34.646 74.102 35.78 74.854 36.163 76.121" fill="#151716" fill-rule="evenodd" opacity="1" stroke="none"/>
<path d="M67.049 87.476C67.049 87.476 61.578 85.169 60.12 79.106L63.922 79.106C65.57 79.106 66.573 79.133 66.573 79.133C66.573 79.133 66.836 78.953 66.836 78.639C66.836 78.639 66.35 77.877 64.987 77.289C64.676 78.064 64.045 78.417 64.025 78.434L59.611 78.435C59.761 77.395 59.845 76.258 59.845 75.004C59.868 74.68 60.018 74.063 60.018 74.063C60.018 74.063 59.276 73.488 57.54 73.467C57.54 73.467 57.999 75.623 57.705 78.435L52.967 78.435C52.126 78.435 51.547 78.225 51.547 78.225C51.547 78.225 51.645 78.895 51.898 79.137C52.15 79.381 52.954 79.106 53.436 79.106L57.621 79.106C57.144 82.408 55.571 86.405 51.116 88.908C51.116 88.908 57.816 88.142 59.476 79.27C60.54 86.556 65.098 88.984 65.098 88.984C65.098 88.984 64.974 88.219 67.049 87.476" fill="#151716" fill-rule="evenodd" opacity="1" stroke="none"/>
<path d="M29.481 81.648L27.336 81.648L27.583 78.514L29.51 78.514C29.506 79.732 29.496 80.768 29.481 81.648M29.244 85.708L27.017 85.708L27.284 82.322L29.468 82.32C29.427 84.004 29.356 85.044 29.244 85.708M25.725 81.648L23.688 81.648L24.074 78.514L25.976 78.514L25.725 81.648ZM25.4 85.708L23.19 85.708L23.606 82.322L25.671 82.322L25.4 85.708ZM32.668 82.348C32.668 82.348 32.931 82.163 32.931 81.954C32.931 81.985 32.552 81.273 31.737 80.906C31.562 81.255 31.304 81.454 31.137 81.557C31.138 80.877 31.134 80.141 31.127 79.334C31.126 78.632 31.466 78.387 31.466 78.387C31.466 78.387 30.99 77.577 29.893 77.125C29.622 77.629 29.153 77.831 29.124 77.842L23.877 77.842C23.684 77.652 23.361 77.416 22.843 77.256C23.034 76.951 23.19 76.662 23.321 76.393L23.321 76.408L29.171 76.408C30.819 76.408 31.824 76.434 31.824 76.434C31.824 76.434 32.085 76.256 32.085 75.941C32.085 75.941 31.591 75.195 30.49 74.814C30.148 75.522 29.625 75.719 29.605 75.734L23.622 75.734C23.901 75.084 24.075 74.594 24.388 74.289C24.388 74.289 23.964 73.451 22.203 73.219C22.203 73.219 22.32 76.633 20.597 79.882C21.47 79.093 22.089 78.365 22.545 77.712L22.005 81.648L21.986 81.648C21.088 81.648 20.52 81.439 20.52 81.439C20.52 81.439 20.663 82.109 20.918 82.352C21.087 82.516 21.502 82.447 21.905 82.383L21.188 87.613C22.273 87.707 22.895 87.64 23.065 86.745L23.113 86.332L29.092 86.332C29.012 86.561 28.917 86.709 28.806 86.819C28.184 87.439 26.014 87.175 26.014 87.175C26.014 87.175 25.944 87.168 25.936 87.226C25.926 87.283 25.994 87.29 25.994 87.29C28 87.525 27.943 88.973 27.943 88.973C29.695 88.973 30.517 88.451 30.878 86.334C31.911 86.341 32.473 86.357 32.473 86.357C32.473 86.357 32.734 86.154 32.734 85.945C32.734 85.945 32.352 85.304 31.531 84.915C31.377 85.193 31.156 85.402 30.986 85.537C31.076 84.682 31.119 83.624 31.131 82.325C32.144 82.332 32.668 82.348 32.668 82.348M19.652 84.684C19.792 83.334 20.583 78.679 20.583 78.679C20.583 78.679 20.589 78.66 20.57 78.655C20.55 78.65 20.544 78.672 20.544 78.672C20.544 78.672 19.984 80.595 18.908 83.893C18.413 85.412 18.053 84.218 16.974 84.501C16.974 84.501 18.892 84.605 18.396 87.66C18.119 89.381 20.692 89.387 20.489 87.707C20.29 86.04 19.514 86.019 19.652 84.684M17.946 79.613C18.243 81.175 19.806 80.676 19.526 79.209C19.245 77.742 16.578 77.557 16.578 77.557C16.578 77.557 17.646 78.051 17.946 79.613M19.126 76.128C19.397 77.834 21.16 77.422 20.906 75.819C20.65 74.215 17.518 73.995 17.518 73.995C17.518 73.995 18.855 74.422 19.126 76.128" fill="#151716" fill-rule="evenodd" opacity="1" stroke="none"/>
<path d="M82.665 81.709C82.318 82.498 81.701 82.861 81.682 82.877L77.749 82.879C77.73 82.194 77.719 81.936 77.744 81.873C77.818 81.693 77.9 81.578 77.9 81.578C77.9 81.578 77.825 81.498 77.667 81.393C78.207 81.283 79.752 80.908 80.77 80.039C81 79.843 81.521 79.661 81.521 79.661C81.521 79.661 81.489 79.584 81.423 79.463C81.976 79.275 82.959 78.893 83.826 78.305C83.968 78.191 84.41 78 84.41 78C84.41 78 83.884 76.846 82.392 76.198C82.143 76.656 81.736 76.897 81.736 76.897L78.403 76.897C79.122 76.615 80.34 76.059 81.215 75.236C81.478 74.964 81.84 74.814 81.84 74.814C81.84 74.814 81.189 73.479 79.459 73.074C79.268 75.02 78.362 76.395 77.981 76.897L71.092 76.897C70.973 76.096 70.787 75.471 70.787 75.471C70.787 75.471 70.723 77.373 69.436 78.336C67.834 79.531 69.171 81.25 70.58 80.009C71.145 79.511 71.235 78.518 71.168 77.585L82.18 77.585C81.999 78.186 81.57 78.832 81.279 79.227C81.029 78.85 80.567 78.322 79.811 78.023C79.558 78.482 79.258 78.607 79.23 78.619L73.565 78.619C72.63 78.619 72.115 78.405 72.115 78.405C72.115 78.405 72.213 79.089 72.473 79.337C72.732 79.586 73.552 79.307 74.046 79.307L79.249 79.307C78.841 80.249 77.904 81.076 77.585 81.34C77.257 81.144 76.667 80.897 75.763 80.912C75.763 80.912 75.95 81.713 76.02 82.879L70.176 82.88C69.169 82.88 68.725 82.665 68.725 82.665C68.725 82.665 68.823 83.349 69.083 83.598C69.341 83.848 70.162 83.568 70.656 83.568L76.045 83.568C76.049 83.971 76.038 84.4 76.001 84.846C75.884 86.195 75.724 86.6 75.579 86.695C75.239 86.913 72.502 86.423 72.502 86.423C72.502 86.423 72.44 86.418 72.43 86.474C72.419 86.53 72.487 86.545 72.487 86.545C74.506 86.781 74.838 88.971 74.838 88.971C77.294 88.971 77.818 87.95 77.794 85.333C77.787 84.606 77.777 84.031 77.767 83.568L81.523 83.568C83.209 83.568 84.235 83.594 84.235 83.594C84.235 83.594 84.504 83.368 84.504 83.088C84.504 83.088 83.931 82.188 82.665 81.709M75.58 75.426C75.867 77.068 77.944 76.659 77.674 75.117C77.403 73.576 74.598 73.252 74.598 73.252C74.598 73.252 75.292 73.783 75.58 75.426M72.481 75.67C72.744 77.169 74.771 76.797 74.524 75.389C74.277 73.979 71.44 73.549 71.44 73.549C71.44 73.549 72.218 74.169 72.481 75.67" fill="#151716" fill-rule="evenodd" opacity="1" stroke="none"/>
</g>
<g opacity="0">
<path d="M54.404 31.544C61.41 27.142 65.356 22.086 65.397 22.034C69.374 17.268 68.122 13.66 68.067 13.508C66.575 8.28699 60.269 6.866 60.002 6.80801L53.599 5.30399C46.534 3.62201 42.238 0.216003 42.198 0.181L41.995 0.0159912L41.792 0.181C41.75 0.216003 37.455 3.62201 30.39 5.30399L23.982 6.80801C23.719 6.866 17.415 8.28699 15.915 13.533C15.866 13.66 14.614 17.268 18.602 22.043C18.634 22.088 22.618 27.189 29.687 31.608L29.69 30.845C22.937 26.547 19.145 21.69 19.107 21.64C16.797 18.877 16.354 16.525 16.354 15.123C16.354 14.252 16.523 13.744 16.529 13.731C17.927 8.84 24.061 7.453 24.124 7.44L30.539 5.93201C36.897 4.42001 41.062 1.52798 41.995 0.834991C42.927 1.52798 47.093 4.42001 53.45 5.93201L59.862 7.439C59.929 7.453 66.062 8.84 67.452 13.709C67.463 13.731 67.635 14.244 67.635 15.129C67.635 16.533 67.19 18.877 64.891 21.631C64.845 21.69 61.092 26.496 54.404 30.78L54.404 31.544Z" fill="#237f3c" fill-rule="evenodd" opacity="1" stroke="none"/>
<path d="M41.726 0.40799C41.565 0.652008 37.787 6.51199 37.228 19.882L37.869 19.909C38.34 8.77499 41.12 2.845 41.995 1.23401C42.868 2.845 45.649 8.77499 46.119 19.909L46.763 19.882C46.203 6.51199 42.426 0.652008 42.263 0.40799L41.995 0L41.726 0.40799Z" fill="#237f3c" fill-rule="evenodd" opacity="1" stroke="none"/>
<path d="M41.995 12.399L40.878 11.279L40.878 7.62399L43.113 7.62399L43.113 11.279L41.995 12.399Z" fill="#237f3c" fill-rule="evenodd" opacity="1" stroke="none"/>
<path d="M41.779 17.998L42.209 17.998L42.209 11.716L41.779 11.716L41.779 17.998Z" fill="#237f3c" fill-rule="evenodd" opacity="1" stroke="none"/>
<path d="M29.69 45.275C21.198 49.294 15.597 49.767 13.924 49.809C14.88 48.247 18.441 42.795 29.687 35.803L29.687 35.051C16.531 43.091 13.205 49.727 13.075 49.989L12.856 50.424L13.344 50.455C13.61 50.469 19.52 50.762 29.69 45.988L29.69 45.275Z" fill="#237f3c" fill-rule="evenodd" opacity="1" stroke="none"/>
<path d="M23.593 44.227L23.186 45.754L20.017 47.583L18.901 45.646L22.065 43.816L23.593 44.227Z" fill="#237f3c" fill-rule="evenodd" opacity="1" stroke="none"/>
<path d="M29.69 40.461L22.896 44.379L23.111 44.752L29.69 40.954L29.69 40.461Z" fill="#237f3c" fill-rule="evenodd" opacity="1" stroke="none"/>
<path d="M45.236 51.683C43.879 60.731 40.614 63.62 40.582 63.648C38.239 65.939 35.636 65.674 35.612 65.674L35.591 65.668L35.57 65.668C31.782 65.721 28.154 61.833 28.117 61.794L25.209 58.777C18.534 52.008 14.698 50.334 13.64 49.972C13.705 49.612 13.795 48.924 13.795 47.835C13.795 45.601 13.412 41.706 11.661 35.567L10.465 31.556C10.454 31.52 9.816 29.506 9.816 27.205C9.816 25.838 10.039 24.375 10.747 23.155L10.759 23.14L10.768 23.119C10.777 23.095 11.826 20.697 14.953 19.793C15.009 19.773 19.847 18.314 29.69 22.46L29.69 21.765C19.764 17.634 14.967 19.109 14.762 19.174C11.389 20.151 10.254 22.678 10.178 22.854C9.405 24.197 9.162 25.776 9.162 27.225C9.162 29.582 9.804 31.612 9.848 31.747L11.04 35.75C12.774 41.824 13.139 45.681 13.139 47.849C13.139 49.397 12.954 50.083 12.949 50.101L12.856 50.43L13.187 50.508C13.222 50.518 17.141 51.515 24.747 59.228L27.649 62.239C27.799 62.399 31.49 66.36 35.565 66.315C35.801 66.338 38.523 66.567 41.016 64.126C41.144 64.019 44.501 61.085 45.889 51.683L45.236 51.683Z" fill="#237f3c" fill-rule="evenodd" opacity="1" stroke="none"/>
<path d="M54.403 45.26C62.896 49.28 68.496 49.752 70.17 49.793C69.213 48.231 65.651 42.783 54.404 35.789L54.404 35.035C67.561 43.076 70.886 49.711 71.019 49.974L71.236 50.412L70.751 50.441C70.48 50.459 64.57 50.746 54.403 45.973L54.403 45.26Z" fill="#237f3c" fill-rule="evenodd" opacity="1" stroke="none"/>
<path d="M60.498 44.211L60.908 45.738L64.075 47.567L65.193 45.63L62.027 43.803L60.498 44.211Z" fill="#237f3c" fill-rule="evenodd" opacity="1" stroke="none"/>
<path d="M54.403 40.445L61.198 44.367L60.982 44.739L54.403 40.942L54.403 40.445Z" fill="#237f3c" fill-rule="evenodd" opacity="1" stroke="none"/>
<path d="M38.856 51.667C40.213 60.718 43.477 63.607 43.511 63.635C45.852 65.924 48.455 65.66 48.483 65.656L48.503 65.654L48.521 65.654C52.308 65.71 55.937 61.817 55.972 61.782L58.883 58.762C65.559 51.996 69.394 50.321 70.456 49.956C70.388 49.598 70.298 48.91 70.298 47.819C70.298 45.589 70.679 41.69 72.432 35.554L73.628 31.542C73.639 31.504 74.275 29.492 74.275 27.189C74.275 25.826 74.053 24.359 73.344 23.142L73.333 23.124L73.323 23.105C73.315 23.079 72.267 20.685 69.14 19.777C69.081 19.758 64.245 18.296 54.403 22.448L54.403 21.744C64.327 17.619 69.126 19.094 69.331 19.162C72.702 20.138 73.838 22.662 73.916 22.845C74.687 24.186 74.931 25.761 74.931 27.209C74.931 29.572 74.288 31.597 74.244 31.731L73.053 35.736C71.316 41.807 70.953 45.667 70.953 47.835C70.953 49.386 71.14 50.073 71.142 50.089L71.237 50.414L70.907 50.494C70.868 50.502 66.953 51.499 59.344 59.214L56.443 62.221C56.293 62.386 52.602 66.345 48.529 66.304C48.292 66.326 45.57 66.552 43.077 64.112C42.949 64.003 39.589 61.069 38.205 51.667L38.856 51.667Z" fill="#237f3c" fill-rule="evenodd" opacity="1" stroke="none"/>
<path d="M17.632 19.527C17.632 19.527 22.943 20.555 29.69 24.021L29.69 24.608C29.69 24.608 20.714 20.268 17.632 19.527" fill="#237f3c" fill-rule="evenodd" opacity="1" stroke="none"/>
<path d="M17.632 19.527L29.69 26.194L29.69 26.931C29.69 26.931 18.87 20.579 17.632 19.527" fill="#237f3c" fill-rule="evenodd" opacity="1" stroke="none"/>
<path d="M17.632 19.527C17.632 19.527 18.927 21.66 29.69 28.626L29.69 29.326C29.69 29.326 20.643 23.586 17.632 19.527" fill="#237f3c" fill-rule="evenodd" opacity="1" stroke="none"/>
<path d="M66.462 19.527C66.462 19.527 61.151 20.555 54.404 24.021L54.404 24.608C54.404 24.608 63.377 20.268 66.462 19.527" fill="#237f3c" fill-rule="evenodd" opacity="1" stroke="none"/>
<path d="M66.462 19.527L54.404 26.194L54.404 26.931C54.404 26.931 65.226 20.579 66.462 19.527" fill="#237f3c" fill-rule="evenodd" opacity="1" stroke="none"/>
<path d="M66.462 19.527C66.462 19.527 65.166 21.66 54.404 28.626L54.404 29.326C54.404 29.326 63.452 23.586 66.462 19.527" fill="#237f3c" fill-rule="evenodd" opacity="1" stroke="none"/>
<path d="M41.995 61.785C41.995 61.785 40.685 58.468 40.035 51.683L40.594 51.683C40.594 51.683 40.758 55.472 41.995 61.785" fill="#237f3c" fill-rule="evenodd" opacity="1" stroke="none"/>
<path d="M42.249 51.683L41.995 61.785L41.74 51.683L42.249 51.683Z" fill="#237f3c" fill-rule="evenodd" opacity="1" stroke="none"/>
<path d="M41.995 61.785C41.995 61.785 43.107 58.252 43.573 51.683L44.067 51.683C44.067 51.683 43.118 59.878 41.995 61.785" fill="#237f3c" fill-rule="evenodd" opacity="1" stroke="none"/>
<path d="M32.693 25.683C32.693 26.149 32.313 26.525 31.85 26.525C31.381 26.525 31.002 26.149 31.002 25.683L31.002 21.865C31.002 21.399 31.381 21.022 31.85 21.022L40.785 21.022C41.021 21.022 41.21 20.833 41.21 20.6L41.21 19.997C41.21 19.527 41.589 19.151 42.054 19.151C42.522 19.151 42.897 19.527 42.897 19.997L42.897 20.6C42.897 20.833 43.088 21.022 43.322 21.022L52.26 21.022C52.726 21.022 53.106 21.399 53.106 21.865L53.106 25.683C53.106 26.149 52.726 26.525 52.26 26.525C51.794 26.525 51.415 26.149 51.415 25.683L51.415 23.134C51.415 22.9 51.228 22.711 50.992 22.711L47.757 22.711C47.523 22.711 47.334 22.9 47.334 23.134L47.334 25.683C47.334 26.149 46.954 26.525 46.49 26.525C46.023 26.525 45.644 26.149 45.644 25.683L45.645 23.134C45.645 22.9 45.455 22.711 45.222 22.711L38.887 22.711C38.654 22.711 38.464 22.9 38.464 23.134L38.464 25.683C38.464 26.149 38.086 26.525 37.621 26.525C37.153 26.525 36.775 26.149 36.775 25.683L36.775 23.134C36.775 22.9 36.585 22.711 36.351 22.711L33.116 22.711C32.881 22.711 32.693 22.9 32.693 23.134L32.693 25.683Z" fill="#237f3c" fill-rule="evenodd" opacity="1" stroke="none"/>
<path d="M31.002 47.071C31.002 47.535 31.381 47.915 31.85 47.915C32.313 47.915 32.693 47.535 32.693 47.071L32.693 38.984C32.693 38.748 32.881 38.562 33.116 38.562L50.992 38.562C51.228 38.562 51.415 38.748 51.415 38.984L51.415 47.071C51.415 47.535 51.794 47.915 52.26 47.915C52.726 47.915 53.106 47.535 53.106 47.071L53.106 37.714C53.106 37.249 52.726 36.872 52.26 36.872L31.85 36.872C31.381 36.872 31.002 37.249 31.002 37.714L31.002 47.071Z" fill="#237f3c" fill-rule="evenodd" opacity="1" stroke="none"/>
<path d="M48.291 34.361C47.824 34.361 47.445 34.736 47.445 35.206C47.445 35.672 47.824 36.051 48.291 36.051L52.26 36.051C52.726 36.051 53.106 35.672 53.106 35.206L53.107 28.296C53.107 27.828 52.726 27.451 52.26 27.451C51.794 27.451 51.415 27.828 51.415 28.296L51.415 28.519C51.415 28.753 51.228 28.941 50.992 28.941L48.291 28.941C47.824 28.941 47.445 29.316 47.445 29.785C47.445 30.25 47.824 30.631 48.291 30.631L50.888 30.631C51.179 30.631 51.415 30.866 51.415 31.158C51.415 31.45 51.179 31.687 50.888 31.687L48.291 31.687C47.824 31.687 47.445 32.063 47.445 32.53C47.445 32.996 47.824 33.375 48.291 33.375L50.921 33.375C51.194 33.375 51.415 33.598 51.415 33.867C51.415 34.142 51.194 34.361 50.921 34.361L48.291 34.361Z" fill="#237f3c" fill-rule="evenodd" opacity="1" stroke="none"/>
<path d="M31.002 28.296C31.002 27.828 31.381 27.451 31.85 27.451C32.313 27.451 32.693 27.828 32.693 28.296L32.693 28.519C32.693 28.753 32.881 28.941 33.116 28.941L35.738 28.941C36.204 28.941 36.584 29.316 36.584 29.785C36.584 30.25 36.204 30.631 35.738 30.631L33.22 30.631C32.928 30.631 32.693 30.866 32.693 31.158C32.693 31.45 32.928 31.687 33.22 31.687L35.738 31.687C36.204 31.687 36.584 32.063 36.584 32.53C36.584 32.996 36.204 33.375 35.738 33.375L33.184 33.375C32.913 33.375 32.693 33.598 32.693 33.867C32.693 34.142 32.913 34.361 33.184 34.361L35.738 34.361C36.204 34.361 36.584 34.736 36.584 35.206C36.584 35.672 36.204 36.051 35.738 36.051L31.85 36.051C31.381 36.051 31.002 35.672 31.002 35.204L31.002 28.296Z" fill="#237f3c" fill-rule="evenodd" opacity="1" stroke="none"/>
<path d="M44.801 41.802C44.801 41.568 44.611 41.379 44.375 41.379L39.731 41.379C39.499 41.379 39.31 41.568 39.31 41.802L39.31 42.433C39.31 42.666 39.499 42.855 39.731 42.855L44.375 42.855C44.611 42.855 44.801 42.666 44.801 42.433L44.801 41.802ZM49.868 46.654C49.868 47.122 49.488 47.498 49.021 47.498L42.897 47.498L42.897 49.541C42.897 50.007 42.522 50.385 42.054 50.385L39.551 50.385C39.084 50.385 38.705 50.007 38.705 49.541C38.705 49.076 39.084 48.697 39.551 48.697L40.785 48.697C41.021 48.697 41.21 48.51 41.21 48.273L41.21 47.498L35.086 47.498C34.619 47.498 34.242 47.122 34.242 46.654L34.242 40.334C34.242 39.869 34.619 39.49 35.086 39.49C35.552 39.49 35.93 39.869 35.93 40.334L35.93 45.389C35.93 45.622 36.118 45.811 36.351 45.811L41.21 45.811L41.21 44.97C41.21 44.733 41.021 44.547 40.785 44.547L38.464 44.547C37.998 44.547 37.621 44.166 37.621 43.7L37.621 40.533C37.621 40.065 37.998 39.688 38.464 39.688L45.645 39.688C46.11 39.688 46.49 40.065 46.49 40.533L46.49 43.7C46.49 44.166 46.11 44.547 45.644 44.547L43.322 44.547C43.088 44.547 42.897 44.733 42.897 44.97L42.897 45.811L47.757 45.811C47.989 45.811 48.177 45.622 48.177 45.389L48.177 40.334C48.177 39.869 48.555 39.49 49.021 39.49C49.488 39.49 49.868 39.869 49.868 40.334L49.868 46.654Z" fill="#237f3c" fill-rule="evenodd" opacity="1" stroke="none"/>
<path d="M41.053 31.515C41.053 31.515 40.91 31.597 40.91 31.731C40.91 31.867 41.053 31.949 41.053 31.949L41.671 32.304C41.671 32.304 41.888 32.433 42.05 32.433C42.209 32.433 42.428 32.304 42.428 32.304L43.045 31.949C43.045 31.949 43.189 31.867 43.189 31.731C43.189 31.597 43.045 31.515 43.045 31.515L42.428 31.16C42.428 31.16 42.209 31.034 42.05 31.034C41.888 31.034 41.671 31.16 41.671 31.16L41.053 31.515ZM39.374 36.02C38.97 36.253 38.453 36.112 38.219 35.709C37.989 35.304 38.126 34.785 38.529 34.556L39.989 33.714C39.989 33.714 40.131 33.633 40.131 33.496C40.131 33.359 39.989 33.284 39.989 33.284L38.565 32.462C38.565 32.462 38.112 32.19 38.112 31.731C38.112 31.272 38.565 31 38.565 31L39.989 30.183C39.989 30.183 40.131 30.103 40.131 29.969C40.131 29.831 39.989 29.752 39.989 29.752L38.455 28.869C38.051 28.632 37.913 28.115 38.144 27.712C38.377 27.309 38.895 27.169 39.3 27.404L41.671 28.772C41.671 28.772 41.888 28.898 42.05 28.898C42.209 28.898 42.428 28.772 42.428 28.772L44.725 27.445C45.132 27.213 45.645 27.352 45.878 27.755C46.112 28.158 45.975 28.677 45.57 28.908L44.11 29.752C44.11 29.752 43.967 29.831 43.967 29.969C43.967 30.103 44.11 30.183 44.11 30.183L45.54 31C45.54 31 45.991 31.272 45.991 31.731C45.991 32.19 45.54 32.462 45.54 32.462L44.11 33.284C44.11 33.284 43.967 33.359 43.967 33.496C43.967 33.633 44.11 33.714 44.11 33.714L45.55 34.545C45.953 34.776 46.092 35.293 45.859 35.696C45.626 36.1 45.108 36.239 44.704 36.008L42.428 34.692C42.428 34.692 42.209 34.565 42.05 34.565C41.888 34.565 41.671 34.692 41.671 34.692L39.374 36.02Z" fill="#237f3c" fill-rule="evenodd" opacity="1" stroke="none"/>
<path d="M7.819 91.66C8.948 91.66 9.461 92.723 9.461 93.711C9.461 94.897 8.755 95.793 7.819 95.793C6.713 95.793 6.134 94.776 6.134 93.773C6.134 92.566 6.86 91.66 7.819 91.66M9.589 92.1C9.163 91.632 8.554 91.384 7.829 91.384C7.156 91.384 6.543 91.628 6.101 92.072C5.66 92.513 5.418 93.116 5.418 93.774C5.418 94.917 6.246 96.07 7.829 96.07C8.464 96.07 9.056 95.834 9.493 95.404C9.933 94.966 10.178 94.363 10.178 93.707C10.178 93.09 9.968 92.518 9.589 92.1" fill="#2c292a" fill-rule="evenodd" opacity="1" stroke="none"/>
<path d="M35.737 91.66C36.245 91.66 36.67 91.878 36.965 92.285C37.232 92.656 37.378 93.16 37.378 93.711C37.378 94.289 37.209 94.821 36.897 95.209C36.594 95.587 36.181 95.793 35.737 95.793C34.632 95.793 34.052 94.776 34.052 93.773C34.052 92.566 34.776 91.66 35.737 91.66M35.745 91.384C35.073 91.384 34.461 91.628 34.018 92.072C33.578 92.513 33.335 93.116 33.335 93.774C33.335 94.917 34.164 96.07 35.745 96.07C36.383 96.07 36.975 95.834 37.41 95.404C37.853 94.966 38.096 94.363 38.096 93.707C38.096 92.589 37.359 91.384 35.745 91.384" fill="#2c292a" fill-rule="evenodd" opacity="1" stroke="none"/>
<path d="M22.727 92.476C22.889 92.85 23.182 93.526 23.455 94.16L22.01 94.16C22.236 93.617 22.496 93.006 22.727 92.476M25.169 95.848C25.064 95.813 24.957 95.816 24.904 95.732L23.007 91.201L22.486 91.91L22.496 91.939C22.496 91.939 22.531 92.035 22.498 92.111C22.498 92.114 22.496 92.119 22.495 92.123C22.04 93.208 21.023 95.674 21.017 95.689C20.889 95.818 20.727 95.848 20.598 95.873C20.462 95.898 20.322 95.879 20.322 96.031L20.322 96.08L21.912 96.08L21.912 96.031C21.912 95.885 21.768 95.887 21.653 95.855C21.515 95.816 21.433 95.79 21.433 95.688C21.434 95.622 21.607 95.133 21.851 94.547L23.621 94.547C23.889 95.164 24.104 95.705 24.104 95.705C24.112 95.728 24.117 95.745 24.117 95.761C24.117 95.768 24.117 95.778 24.112 95.783C24.092 95.826 24 95.852 23.916 95.873C23.79 95.906 23.648 95.903 23.648 96.031L23.648 96.08L25.426 96.08L25.426 96.031C25.426 95.897 25.295 95.893 25.169 95.848" fill="#2c292a" fill-rule="evenodd" opacity="1" stroke="none"/>
<path d="M31.357 95.373C30.954 95.732 30.377 95.873 29.633 95.793C29.271 95.757 29.252 95.501 29.252 95.055L29.252 92.405C29.252 91.972 29.271 91.7 29.633 91.663C30.377 91.586 30.955 91.728 31.357 92.09C31.755 92.448 31.965 93.015 31.965 93.73C31.965 94.447 31.755 95.013 31.357 95.373M30.059 91.391L28.027 91.391L28.027 91.433C28.027 91.587 28.138 91.553 28.219 91.556C28.372 91.562 28.58 91.615 28.58 92.405L28.58 95.055C28.58 95.848 28.372 95.857 28.219 95.863C28.138 95.87 28.027 95.873 28.027 96.028L28.027 96.076L29.085 96.076L29.753 96.08C31.763 96.08 32.785 95.289 32.785 93.73C32.785 92.255 31.836 91.391 30.059 91.391" fill="#2c292a" fill-rule="evenodd" opacity="1" stroke="none"/>
<path d="M27.356 91.575C27.439 91.56 27.543 91.584 27.543 91.435L27.543 91.391L25.767 91.391L25.767 91.435C25.767 91.584 25.868 91.56 25.951 91.575C26.096 91.601 26.317 91.685 26.317 92.483L26.317 94.983C26.317 95.779 26.096 95.823 25.951 95.848C25.868 95.861 25.767 95.881 25.767 96.031L25.767 96.08L27.543 96.08L27.543 96.031C27.543 95.881 27.439 95.861 27.356 95.848C27.211 95.823 26.991 95.779 26.991 94.983L26.991 92.483C26.991 91.685 27.211 91.601 27.356 91.575" fill="#2c292a" fill-rule="evenodd" opacity="1" stroke="none"/>
<path d="M4.897 91.564C4.975 91.556 5.084 91.586 5.084 91.435L5.084 91.391L3.306 91.391L3.306 91.435C3.306 91.586 3.416 91.556 3.497 91.564C3.641 91.582 3.858 91.649 3.858 92.444L3.858 93.464L1.308 93.464L1.308 92.444C1.308 91.649 1.527 91.582 1.672 91.564C1.75 91.556 1.859 91.586 1.859 91.435L1.859 91.391L0.0839996 91.391L0.0839996 91.435C0.0839996 91.586 0.192001 91.556 0.270996 91.564C0.417999 91.582 0.634003 91.649 0.634003 92.444L0.634003 95.022C0.634003 95.816 0.417999 95.883 0.270996 95.9C0.192001 95.91 0.0839996 95.877 0.0839996 96.031L0.0839996 96.08L1.859 96.08L1.859 96.031C1.859 95.877 1.75 95.91 1.672 95.9C1.527 95.883 1.308 95.816 1.308 95.022L1.308 93.848L3.858 93.848L3.858 95.022C3.858 95.816 3.641 95.883 3.497 95.9C3.416 95.91 3.306 95.877 3.306 96.031L3.306 96.08L5.084 96.08L5.084 96.031C5.084 95.877 4.975 95.91 4.897 95.9C4.751 95.883 4.532 95.816 4.532 95.022L4.532 92.444C4.532 91.649 4.751 91.582 4.897 91.564" fill="#2c292a" fill-rule="evenodd" opacity="1" stroke="none"/>
<path d="M14.802 95.863C14.706 95.834 14.598 95.803 14.521 95.721L13.564 94.622C13.156 94.166 12.768 93.734 12.539 93.506C12.527 93.494 12.523 93.482 12.523 93.467C12.524 93.422 12.575 93.366 12.594 93.349C12.594 93.349 14.571 91.612 14.678 91.582C14.81 91.544 15.029 91.619 15.029 91.435L15.029 91.391L13.364 91.391L13.364 91.435C13.364 91.631 13.904 91.518 13.904 91.693C13.904 91.767 11.902 93.424 11.902 93.424C11.836 93.478 11.778 93.498 11.744 93.488C11.709 93.48 11.692 93.436 11.688 93.42L11.685 93.42L11.685 92.408C11.685 91.615 11.896 91.564 12.048 91.556C12.129 91.553 12.239 91.591 12.239 91.435L12.239 91.391L10.462 91.391L10.462 91.435C10.462 91.591 10.573 91.553 10.654 91.556C10.806 91.564 11.016 91.615 11.016 92.408L11.016 95.057C11.016 95.85 10.806 95.9 10.654 95.91C10.573 95.912 10.462 95.877 10.462 96.031L10.462 96.08L12.239 96.08L12.239 96.031C12.239 95.877 12.129 95.912 12.048 95.91C11.896 95.9 11.685 95.85 11.685 95.057L11.685 94.179C11.685 94.175 11.688 94.102 11.764 94.035L11.869 93.95C11.908 93.928 11.972 93.901 12.022 93.956C12.483 94.424 13.473 95.556 13.648 95.757C13.696 95.81 13.691 95.83 13.691 95.83C13.691 95.908 13.589 95.873 13.54 95.883C13.42 95.91 13.271 95.873 13.271 96.031L13.271 96.08L15.046 96.08L15.046 96.031C15.046 95.893 14.923 95.898 14.802 95.863" fill="#2c292a" fill-rule="evenodd" opacity="1" stroke="none"/>
<path d="M19.768 95.863C19.672 95.834 19.565 95.803 19.487 95.721L18.531 94.622C18.122 94.166 17.734 93.734 17.506 93.506C17.494 93.494 17.49 93.482 17.49 93.467C17.491 93.422 17.542 93.366 17.561 93.349C17.561 93.349 19.538 91.612 19.646 91.582C19.775 91.544 19.994 91.619 19.994 91.435L19.994 91.391L18.331 91.391L18.331 91.435C18.331 91.631 18.87 91.518 18.87 91.693C18.87 91.767 16.87 93.424 16.87 93.424C16.802 93.478 16.746 93.498 16.709 93.488C16.675 93.48 16.659 93.436 16.654 93.42L16.653 93.42L16.653 92.408C16.653 91.615 16.863 91.564 17.014 91.556C17.095 91.553 17.206 91.591 17.206 91.435L17.206 91.391L15.428 91.391L15.428 91.435C15.428 91.591 15.541 91.553 15.62 91.556C15.772 91.564 15.981 91.615 15.981 92.408L15.981 95.057C15.981 95.85 15.772 95.9 15.62 95.91C15.541 95.912 15.428 95.877 15.428 96.031L15.428 96.08L17.206 96.08L17.206 96.031C17.206 95.877 17.095 95.912 17.014 95.91C16.863 95.9 16.653 95.85 16.653 95.057L16.653 94.179C16.653 94.175 16.654 94.102 16.731 94.035L16.836 93.95C16.875 93.928 16.939 93.901 16.989 93.956C17.45 94.424 18.44 95.556 18.613 95.757C18.663 95.81 18.657 95.83 18.657 95.83C18.657 95.908 18.556 95.873 18.506 95.883C18.387 95.91 18.238 95.873 18.238 96.031L18.238 96.08L20.014 96.08L20.014 96.031C20.014 95.893 19.889 95.898 19.768 95.863" fill="#2c292a" fill-rule="evenodd" opacity="1" stroke="none"/>
<path d="M70.351 93.484L69.743 93.144C69.512 93.015 69.123 92.74 69.123 92.349C69.123 92.137 69.205 91.64 69.979 91.64C70.398 91.64 70.641 91.769 70.758 92.057C70.892 92.38 71.09 92.321 71.09 92.321L70.961 91.486L70.939 91.475C70.926 91.469 70.652 91.332 70.092 91.332C69.135 91.332 68.491 91.822 68.491 92.551C68.491 93.144 68.952 93.542 69.338 93.768L70.06 94.189C70.587 94.496 70.66 94.808 70.66 95.104C70.66 95.468 70.381 95.839 69.757 95.839C69.045 95.839 68.67 95.405 68.581 95.143C68.445 94.731 68.28 94.826 68.28 94.826L68.427 95.875L68.448 95.887C68.572 95.959 69.034 96.147 69.659 96.147C70.658 96.147 71.329 95.62 71.329 94.837C71.329 94.291 71.008 93.85 70.351 93.484" fill="#2c292a" fill-rule="evenodd" opacity="1" stroke="none"/>
<path d="M43.694 91.393L43.694 91.439C43.694 91.591 43.82 91.564 43.93 91.576C44.141 91.608 44.431 91.692 44.431 92.485L44.431 94.291C44.431 95.748 43.086 95.766 43.032 95.766C42.977 95.766 41.732 95.748 41.732 94.291L41.732 92.485C41.732 91.69 41.992 91.608 42.18 91.576C42.275 91.564 42.395 91.591 42.395 91.439L42.395 91.393L40.509 91.393L40.509 91.439C40.509 91.589 40.613 91.564 40.693 91.576C40.838 91.605 41.061 91.69 41.061 92.485L41.061 94.291C41.061 96.062 43.011 96.082 43.032 96.082C43.051 96.082 44.805 96.062 44.805 94.291L44.805 92.485C44.805 91.69 45.033 91.606 45.199 91.576C45.287 91.564 45.395 91.591 45.395 91.439L45.395 91.393L43.694 91.393Z" fill="#2c292a" fill-rule="evenodd" opacity="1" stroke="none"/>
<path d="M52.941 91.569C53.021 91.558 53.13 91.593 53.13 91.439L53.13 91.393L51.356 91.393L51.356 91.439C51.356 91.593 51.462 91.558 51.542 91.569C51.687 91.587 51.907 91.655 51.907 92.45L51.907 95.025C51.907 95.818 51.687 95.887 51.543 95.904C51.462 95.912 51.356 95.881 51.356 96.033L51.356 96.082L53.13 96.082L53.13 96.033C53.13 95.881 53.021 95.912 52.94 95.904C52.797 95.887 52.578 95.818 52.578 95.025L52.578 92.45C52.578 91.655 52.797 91.587 52.941 91.569" fill="#2c292a" fill-rule="evenodd" opacity="1" stroke="none"/>
<path d="M73.939 91.569C74.019 91.558 74.128 91.593 74.128 91.439L74.128 91.393L72.354 91.393L72.354 91.439C72.354 91.593 72.462 91.558 72.541 91.569C72.686 91.587 72.903 91.655 72.903 92.45L72.903 95.025C72.903 95.818 72.686 95.887 72.541 95.904C72.462 95.912 72.354 95.881 72.354 96.033L72.354 96.082L74.128 96.082L74.128 96.033C74.128 95.881 74.019 95.912 73.939 95.904C73.794 95.887 73.576 95.818 73.576 95.025L73.576 92.45C73.576 91.655 73.794 91.587 73.939 91.569" fill="#2c292a" fill-rule="evenodd" opacity="1" stroke="none"/>
<path d="M57.291 91.393L57.291 91.439C57.291 91.589 57.447 91.582 57.586 91.615C57.746 91.653 57.841 91.681 57.841 91.78C57.838 91.916 57.095 93.605 56.502 94.872L55.173 91.725C55.158 91.692 55.153 91.667 55.164 91.653C55.182 91.615 55.277 91.595 55.354 91.582C55.477 91.556 55.628 91.573 55.628 91.439L55.628 91.393L53.852 91.393L53.852 91.439C53.852 91.68 54.266 91.508 54.373 91.739L56.35 96.135L56.407 95.988C56.599 95.558 58.251 91.796 58.258 91.776C58.32 91.638 58.492 91.622 58.58 91.6C58.676 91.571 58.766 91.591 58.766 91.439L58.766 91.393L57.291 91.393Z" fill="#2c292a" fill-rule="evenodd" opacity="1" stroke="none"/>
<path d="M82.918 91.393L82.918 91.439C82.918 91.589 83.063 91.579 83.19 91.615C83.333 91.649 83.435 91.66 83.422 91.78C83.405 91.896 82.671 93.081 82.358 93.568C82.358 93.568 82.293 93.672 82.249 93.742C82.174 93.609 81.134 91.722 81.134 91.722C81.124 91.704 81.121 91.687 81.121 91.673C81.121 91.663 81.121 91.657 81.124 91.653C81.144 91.615 81.237 91.595 81.316 91.582C81.438 91.556 81.59 91.573 81.59 91.439L81.59 91.393L79.814 91.393L79.814 91.439C79.814 91.575 79.951 91.569 80.068 91.601C80.174 91.628 80.282 91.657 80.335 91.739L81.721 94.201C81.721 94.201 81.765 94.281 81.765 94.354L81.765 95.025C81.765 95.818 81.546 95.887 81.401 95.904C81.322 95.912 81.212 95.881 81.212 96.033L81.212 96.082L82.99 96.082L82.99 96.033C82.99 95.881 82.879 95.912 82.801 95.904C82.654 95.887 82.435 95.818 82.435 95.025L82.435 94.257C82.435 94.148 82.502 94.039 82.502 94.038L83.888 91.773C83.982 91.632 84.117 91.622 84.208 91.6C84.303 91.571 84.396 91.591 84.396 91.439L84.396 91.393L82.918 91.393Z" fill="#2c292a" fill-rule="evenodd" opacity="1" stroke="none"/>
<path d="M48.965 91.393L48.965 91.439C48.965 91.591 49.084 91.564 49.19 91.576C49.39 91.608 49.667 91.692 49.667 92.485L49.665 94.712L46.897 91.393L45.742 91.393L45.742 91.439C45.742 91.591 45.863 91.564 45.97 91.576C46.17 91.608 46.443 91.692 46.443 92.485L46.443 94.95C46.443 95.748 46.213 95.848 46.048 95.885C45.956 95.906 45.856 95.885 45.856 96.033L45.856 96.082L47.52 96.082L47.52 96.033C47.52 95.885 47.4 95.904 47.296 95.885C47.095 95.846 46.819 95.748 46.819 94.95L46.819 92.431L49.946 96.235L50.04 96.376L50.04 96.352L50.042 96.354L50.04 96.195L50.04 92.485C50.04 91.69 50.269 91.606 50.434 91.576C50.522 91.564 50.629 91.591 50.629 91.439L50.629 91.393L48.965 91.393Z" fill="#2c292a" fill-rule="evenodd" opacity="1" stroke="none"/>
<path d="M62.826 94.845C62.668 94.845 62.603 95.004 62.529 95.189C62.419 95.46 62.297 95.766 61.864 95.766L60.63 95.766C60.558 95.761 60.347 95.719 60.347 95.489L60.347 93.923L60.815 93.923C61.609 93.923 61.651 94.199 61.676 94.398C61.693 94.504 61.71 94.625 61.861 94.625L61.91 94.625L61.91 92.848L61.861 92.848C61.71 92.848 61.693 92.968 61.676 93.074C61.651 93.274 61.609 93.547 60.815 93.547L60.347 93.547L60.347 92.123C60.347 91.769 60.62 91.716 60.704 91.708L61.791 91.708C62.217 91.708 62.278 91.945 62.332 92.156C62.367 92.299 62.401 92.442 62.565 92.442L62.613 92.442L62.613 91.393L59.124 91.393L59.124 91.439C59.124 91.595 59.232 91.601 59.314 91.603C59.466 91.61 59.673 91.622 59.673 92.413L59.673 95.062C59.673 95.85 59.466 95.861 59.314 95.87C59.232 95.873 59.124 95.877 59.124 96.033L59.124 96.082L62.682 96.082L62.882 94.845L62.826 94.845Z" fill="#2c292a" fill-rule="evenodd" opacity="1" stroke="none"/>
<path d="M79.342 91.391L75.05 91.391L74.966 92.442L75.021 92.442C75.176 92.442 75.243 92.308 75.314 92.166C75.424 91.949 75.546 91.706 75.981 91.706L76.71 91.706C76.794 91.803 76.859 92.008 76.859 92.444L76.859 95.023C76.859 95.816 76.641 95.887 76.494 95.904C76.416 95.912 76.306 95.879 76.306 96.033L76.306 96.082L78.085 96.082L78.085 96.033C78.085 95.879 77.976 95.912 77.898 95.904C77.751 95.887 77.532 95.816 77.532 95.023L77.532 92.444C77.532 92.008 77.599 91.803 77.681 91.706L78.41 91.706C78.845 91.706 78.968 91.949 79.077 92.166C79.148 92.308 79.216 92.442 79.371 92.442L79.423 92.442L79.342 91.391Z" fill="#2c292a" fill-rule="evenodd" opacity="1" stroke="none"/>
<path d="M66.465 92.624C66.465 92.781 66.396 93.573 65.072 93.573L64.731 93.573C64.703 93.573 64.698 93.547 64.698 93.529L64.698 91.805C64.7 91.776 64.776 91.689 65.077 91.669C65.572 91.64 65.944 91.739 66.185 91.963C66.444 92.208 66.465 92.53 66.465 92.624M67.217 95.517C66.745 94.939 66.091 93.829 66.082 93.821C66.061 93.783 66.063 93.77 66.065 93.765C66.066 93.758 66.08 93.752 66.082 93.752C66.85 93.535 67.226 93.168 67.226 92.624C67.226 92.164 66.962 91.391 65.198 91.391L64.602 91.393L64.534 91.391L63.475 91.393L63.475 91.439C63.475 91.595 63.585 91.601 63.664 91.603C63.819 91.61 64.026 91.622 64.026 92.413L64.026 95.025C64.026 95.818 63.808 95.932 63.663 95.948C63.582 95.957 63.475 95.881 63.475 96.033L63.475 96.082L65.25 96.082L65.25 96.033C65.25 95.881 65.141 95.957 65.06 95.948C64.917 95.932 64.697 95.818 64.697 95.025L64.698 93.881C64.698 93.87 64.7 93.863 64.705 93.858L65.095 93.858C65.148 93.863 65.345 93.901 65.544 94.195L66.44 95.542C66.941 96.298 68.062 96.323 68.106 96.323C68.106 96.323 67.655 96.055 67.217 95.517" fill="#2c292a" fill-rule="evenodd" opacity="1" stroke="none"/>
<path d="M4.805 77.153L4.805 78.753L1.432 78.753C0.575996 78.753 0.0130005 78.544 0.0130005 78.544C0.0130005 78.544 0.108002 79.212 0.362999 79.456C0.614998 79.699 1.665 79.426 2.147 79.426L4.805 79.426L4.805 84.712C2.476 85.747 0 86.064 0 86.064C0.579002 87.414 1.68 88.022 1.68 88.022C1.68 88.022 1.809 87.726 2.151 87.47C3.252 86.652 4.23 85.674 4.805 85.059L4.805 88.037L4.805 88.961C5.72 88.961 6.558 88.679 6.558 87.919L6.558 86.561L6.558 81.014L6.558 74.801C6.558 74.344 6.742 73.912 6.742 73.912C6.742 73.912 6.076 73.189 4.695 73.163C4.695 73.163 4.805 73.745 4.805 77.153M15.355 86.144C15.145 85.933 15.104 85.619 15.104 85.387L15.104 83.731C15.104 83.719 15.098 83.707 15.091 83.707C15.084 83.707 15.075 83.716 15.073 83.731L15.031 83.999C15.031 84.001 15.032 84.001 15.032 84.001C14.869 84.903 14.381 86.693 13.058 86.693L11.656 86.693C10.815 86.693 10.29 86.275 10.29 85.246L10.29 80.318C10.852 80.141 12.927 79.466 14.315 78.681C14.665 78.483 15.307 78.316 15.307 78.316C15.307 78.316 14.826 77.052 13.429 76.555C12.229 78.597 10.753 79.875 10.29 80.247L10.29 74.739C10.29 74.281 10.5 73.85 10.5 73.85C10.5 73.85 10.026 73.212 8.528 73.163C8.528 73.163 8.581 73.728 8.581 76.75L8.581 85.235C8.581 87.439 9.179 88.387 11.258 88.387L14.207 88.387C16.002 88.387 16.135 86.924 15.355 86.144" fill="#151716" fill-rule="evenodd" opacity="1" stroke="none"/>
<path d="M49.893 87.058C49.893 87.058 44.943 87.564 41.375 87.242C39.13 87.04 38.507 85.904 38.356 85.09L38.356 81.324C38.354 80.621 38.659 80.325 38.659 80.325C38.659 80.325 38.399 79.341 36.963 79.022C36.782 79.744 36.42 79.818 36.393 79.828L35.629 79.828C34.746 79.828 34.163 79.619 34.163 79.619C34.163 79.619 34.309 80.288 34.56 80.531C34.814 80.775 35.616 80.502 36.098 80.502L36.808 80.502L36.808 86.38C36.75 86.409 36.689 86.439 36.628 86.465C35.503 86.981 34.264 87.272 34.264 87.272C34.932 88.511 36.114 88.899 36.147 88.926C36.285 88.324 36.623 88.087 37.169 87.379C37.415 87.062 37.68 86.588 37.899 86.162C38.235 87.265 38.982 88.477 40.645 88.712C43.811 89.163 48.935 88.895 48.935 88.895C48.935 88.895 48.703 87.927 49.893 87.058M46.501 80.218L41.558 80.218L41.558 78.482L46.501 78.482L46.501 80.218ZM46.501 82.629L41.558 82.629L41.558 80.894L46.501 80.894L46.501 82.629ZM46.501 85.041L41.558 85.041L41.558 83.304L46.501 83.304L46.501 85.041ZM40.343 76.364L43.055 76.364C43.049 76.456 43.042 76.545 43.031 76.641C42.965 77.223 42.822 77.612 42.737 77.806L41.187 77.806L41.187 77.819C40.911 77.609 40.465 77.385 39.781 77.345C39.781 77.345 39.927 78.16 39.927 79.247L39.927 86.451C40.919 86.451 41.482 86.349 41.545 85.716L46.501 85.716L46.501 86.451C47.555 86.451 48.132 86.343 48.132 85.599L48.132 79.303C48.13 78.599 48.463 78.381 48.463 78.381C48.463 78.381 48.042 77.639 47.046 77.204C46.839 77.623 46.44 77.806 46.44 77.806L43.029 77.806C43.485 77.599 44.288 77.157 44.961 76.364L46.806 76.364C48.456 76.364 49.459 76.392 49.459 76.392C49.459 76.392 49.722 76.197 49.722 75.961C49.722 75.961 49.271 75.248 48.204 74.72C47.841 75.436 47.26 75.674 47.24 75.691L45.523 75.691C45.915 75.495 46.342 75.237 46.728 74.91C47.034 74.651 47.322 74.538 47.322 74.538C47.322 74.538 47.076 73.516 45.615 73.124C45.615 73.124 45.498 73.937 45.082 74.816C44.916 75.166 44.737 75.46 44.583 75.691L42.953 75.691C43.066 75.476 43.116 75.188 43.055 74.839C42.796 73.366 39.986 73.187 39.986 73.187C39.986 73.187 41.084 73.564 41.359 75.133C41.399 75.36 41.471 75.544 41.562 75.691L39.874 75.691C39.014 75.691 38.332 75.482 38.332 75.482C38.332 75.482 38.55 76.151 38.803 76.396C39.057 76.639 39.859 76.364 40.343 76.364M36.19 76.093C36.701 77.781 38.33 77.3 37.89 75.756C37.445 74.194 34.671 74.07 34.671 74.07C34.671 74.07 35.807 74.825 36.19 76.093" fill="#151716" fill-rule="evenodd" opacity="1" stroke="none"/>
<path d="M67.103 87.457C67.103 87.457 61.624 85.148 60.167 79.082L63.972 79.082C65.621 79.082 66.624 79.109 66.624 79.109C66.624 79.109 66.887 78.929 66.887 78.614C66.887 78.614 66.4 77.853 65.038 77.267C64.725 78.037 64.093 78.392 64.076 78.407L59.658 78.407C59.808 77.369 59.891 76.23 59.891 74.975C59.916 74.649 60.064 74.035 60.064 74.035C60.064 74.035 59.322 73.46 57.585 73.438C57.585 73.438 58.044 75.594 57.75 78.407L53.007 78.409C52.166 78.409 51.588 78.199 51.588 78.199C51.588 78.199 51.684 78.869 51.937 79.111C52.19 79.355 52.994 79.082 53.476 79.082L57.665 79.082C57.188 82.386 55.615 86.385 51.155 88.891C51.155 88.891 57.862 88.123 59.522 79.245C60.588 86.538 65.148 88.967 65.148 88.967C65.148 88.967 65.023 88.203 67.103 87.457" fill="#151716" fill-rule="evenodd" opacity="1" stroke="none"/>
<path d="M29.504 81.626L27.356 81.626L27.603 78.489L29.531 78.489C29.528 79.709 29.52 80.744 29.504 81.626M29.266 85.689L27.039 85.689L27.305 82.3L29.49 82.299C29.45 83.981 29.379 85.023 29.266 85.689M25.744 81.626L23.707 81.626L24.091 78.489L25.995 78.489L25.744 81.626ZM25.419 85.689L23.208 85.689L23.624 82.3L25.691 82.3L25.419 85.689ZM32.693 82.326C32.693 82.326 32.957 82.141 32.957 81.932C32.957 81.963 32.577 81.25 31.762 80.884C31.586 81.23 31.328 81.431 31.161 81.535C31.162 80.855 31.157 80.116 31.149 79.312C31.148 78.606 31.491 78.36 31.491 78.36C31.491 78.36 31.014 77.553 29.916 77.097C29.644 77.604 29.173 77.804 29.147 77.815L23.894 77.815C23.703 77.625 23.377 77.392 22.861 77.231C23.052 76.924 23.207 76.635 23.34 76.366L23.34 76.382L29.194 76.382C30.843 76.382 31.846 76.409 31.846 76.409C31.846 76.409 32.11 76.228 32.11 75.912C32.11 75.912 31.615 75.166 30.514 74.783C30.172 75.494 29.648 75.691 29.628 75.707L23.64 75.707C23.92 75.057 24.092 74.564 24.405 74.26C24.405 74.26 23.983 73.422 22.218 73.19C22.218 73.19 22.338 76.605 20.614 79.859C21.487 79.066 22.105 78.339 22.562 77.688L22.022 81.626L22.002 81.626C21.103 81.626 20.535 81.417 20.535 81.417C20.535 81.417 20.679 82.088 20.933 82.33C21.102 82.494 21.52 82.425 21.921 82.361L21.204 87.595C22.29 87.689 22.912 87.623 23.081 86.726L23.131 86.314L29.115 86.314C29.033 86.541 28.939 86.689 28.827 86.801C28.207 87.422 26.034 87.157 26.034 87.157C26.034 87.157 25.964 87.149 25.956 87.209C25.945 87.265 26.014 87.272 26.014 87.272C28.021 87.508 27.966 88.955 27.966 88.955C29.717 88.955 30.54 88.433 30.903 86.315C31.935 86.323 32.497 86.338 32.497 86.338C32.497 86.338 32.76 86.135 32.76 85.926C32.76 85.926 32.375 85.282 31.554 84.893C31.401 85.174 31.18 85.385 31.011 85.517C31.1 84.66 31.142 83.604 31.155 82.302C32.168 82.311 32.693 82.326 32.693 82.326M19.667 84.663C19.806 83.313 20.598 78.655 20.598 78.655C20.598 78.655 20.604 78.634 20.586 78.63C20.566 78.624 20.56 78.647 20.56 78.647C20.56 78.647 19.999 80.57 18.922 83.872C18.427 85.392 18.067 84.195 16.986 84.48C16.986 84.48 18.905 84.585 18.41 87.642C18.131 89.365 20.708 89.37 20.505 87.689C20.305 86.022 19.529 86 19.667 84.663M17.959 79.588C18.258 81.15 19.822 80.652 19.541 79.183C19.258 77.717 16.591 77.531 16.591 77.531C16.591 77.531 17.66 78.024 17.959 79.588M19.139 76.102C19.411 77.81 21.176 77.397 20.921 75.792C20.666 74.186 17.531 73.966 17.531 73.966C17.531 73.966 18.869 74.393 19.139 76.102" fill="#151716" fill-rule="evenodd" opacity="1" stroke="none"/>
<path d="M82.729 81.687C82.383 82.476 81.763 82.84 81.745 82.855L77.809 82.857C77.79 82.172 77.78 81.912 77.805 81.85C77.878 81.671 77.961 81.556 77.961 81.556C77.961 81.556 77.886 81.475 77.727 81.37C78.267 81.26 79.815 80.884 80.833 80.017C81.064 79.818 81.584 79.637 81.584 79.637C81.584 79.637 81.552 79.559 81.486 79.439C82.04 79.249 83.022 78.867 83.891 78.277C84.034 78.166 84.475 77.976 84.475 77.976C84.475 77.976 83.95 76.819 82.458 76.171C82.207 76.632 81.8 76.87 81.8 76.87L78.464 76.87C79.183 76.59 80.402 76.03 81.278 75.209C81.542 74.937 81.904 74.785 81.904 74.785C81.904 74.785 81.252 73.449 79.521 73.045C79.331 74.99 78.424 76.367 78.041 76.87L71.146 76.87C71.027 76.068 70.841 75.442 70.841 75.442C70.841 75.442 70.777 77.346 69.489 78.31C67.888 79.506 69.227 81.228 70.635 79.984C71.201 79.485 71.292 78.492 71.223 77.561L82.245 77.561C82.063 78.16 81.634 78.807 81.342 79.2C81.092 78.824 80.629 78.294 79.873 77.998C79.62 78.456 79.319 78.583 79.291 78.593L73.624 78.593C72.686 78.593 72.171 78.381 72.171 78.381C72.171 78.381 72.271 79.064 72.529 79.314C72.788 79.564 73.61 79.282 74.104 79.282L79.311 79.282C78.903 80.226 77.965 81.054 77.646 81.316C77.316 81.119 76.726 80.874 75.821 80.89C75.821 80.89 76.009 81.69 76.08 82.857L70.231 82.857C69.221 82.857 68.778 82.643 68.778 82.643C68.778 82.643 68.876 83.326 69.137 83.576C69.395 83.825 70.216 83.547 70.71 83.547L76.104 83.547C76.11 83.95 76.097 84.38 76.06 84.825C75.943 86.178 75.784 86.583 75.637 86.676C75.298 86.895 72.557 86.405 72.557 86.405C72.557 86.405 72.496 86.397 72.486 86.456C72.475 86.512 72.544 86.525 72.544 86.525C74.563 86.764 74.897 88.953 74.897 88.953C77.355 88.953 77.878 87.935 77.854 85.314C77.847 84.587 77.836 84.008 77.827 83.547L81.587 83.547C83.274 83.547 84.301 83.573 84.301 83.573C84.301 83.573 84.57 83.349 84.57 83.065C84.57 83.065 83.997 82.166 82.729 81.687M75.638 75.399C75.926 77.042 78.005 76.633 77.733 75.09C77.463 73.547 74.656 73.222 74.656 73.222C74.656 73.222 75.351 73.756 75.638 75.399M72.539 75.643C72.802 77.144 74.829 76.77 74.582 75.36C74.335 73.95 71.496 73.52 71.496 73.52C71.496 73.52 72.275 74.14 72.539 75.643" fill="#151716" fill-rule="evenodd" opacity="1" stroke="none"/>
</g>
<g opacity="1">
<path d="M62.506 31.746C69.555 27.317 73.53 22.229 73.567 22.176C77.573 17.379 76.312 13.748 76.255 13.597C74.754 8.34003 68.408 6.91101 68.14 6.854L61.692 5.34003C54.583 3.64905 50.26 0.215027 50.218 0.18103L50.013 0.0200195L49.813 0.18103C49.771 0.215027 45.446 3.64905 38.335 5.34003L31.887 6.854C31.622 6.91101 25.278 8.34003 23.768 13.621C23.72 13.748 22.455 17.379 26.47 22.187C26.506 22.231 30.515 27.366 37.628 31.815L37.63 31.046C30.837 26.718 27.019 21.833 26.979 21.7791C24.657 18.999 24.211 16.6331 24.211 15.221C24.211 14.3441 24.377 13.832 24.385 13.819C25.792 8.89703 31.968 7.50403 32.029 7.49103L38.487 5.97101C44.887 4.45001 49.076 1.53802 50.013 0.842041C50.952 1.53802 55.148 4.45001 61.542 5.97101L67.999 7.487C68.065 7.50403 74.237 8.89703 75.637 13.8C75.645 13.819 75.822 14.338 75.822 15.2271C75.822 16.642 75.372 19.002 73.064 21.772C73.012 21.83 69.232 26.668 62.506 30.978L62.506 31.746Z" fill="#237f3c" fill-rule="evenodd" opacity="1" stroke="none"/>
<path d="M49.745 0.411011C49.582 0.655029 45.781 6.55603 45.215 20.012L45.866 20.041C46.337 8.836 49.133 2.862 50.013 1.24506C50.895 2.862 53.696 8.836 54.165 20.041L54.816 20.012C54.249 6.55603 50.449 0.655029 50.285 0.411011L50.013 0L49.745 0.411011Z" fill="#237f3c" fill-rule="evenodd" opacity="1" stroke="none"/>
<path d="M50.013 12.481L48.891 11.355L48.891 7.67603L51.141 7.67603L51.141 11.355L50.013 12.481Z" fill="#237f3c" fill-rule="evenodd" opacity="1" stroke="none"/>
<path d="M49.798 18.114L50.229 18.114L50.229 11.794L49.798 11.794L49.798 18.114Z" fill="#237f3c" fill-rule="evenodd" opacity="1" stroke="none"/>
<path d="M37.63 45.566C29.087 49.612 23.446 50.086 21.766 50.13C22.73 48.5551 26.31 43.072 37.628 36.035L37.628 35.277C24.389 43.367 21.038 50.048 20.909 50.311L20.685 50.75L21.179 50.781C21.449 50.796 27.393 51.088 37.63 46.285L37.63 45.566Z" fill="#237f3c" fill-rule="evenodd" opacity="1" stroke="none"/>
<path d="M31.499 44.512L31.083 46.051L27.894 47.89L26.774 45.941L29.957 44.1L31.499 44.512Z" fill="#237f3c" fill-rule="evenodd" opacity="1" stroke="none"/>
<path d="M37.63 40.72L30.792 44.666L31.012 45.043L37.63 41.218L37.63 40.72Z" fill="#237f3c" fill-rule="evenodd" opacity="1" stroke="none"/>
<path d="M53.277 52.018C51.908 61.125 48.627 64.0341 48.593 64.059C46.236 66.3651 43.617 66.1 43.589 66.098L43.571 66.095L43.548 66.095C39.738 66.147 36.085 62.233 36.048 62.1931L33.121 59.157C26.402 52.3441 22.544 50.658 21.475 50.296C21.546 49.931 21.633 49.238 21.633 48.144C21.633 45.8961 21.249 41.974 19.487 35.799L18.284 31.759C18.273 31.724 17.628 29.698 17.628 27.382C17.628 26.0081 17.857 24.532 18.568 23.3051L18.581 23.287L18.586 23.269C18.595 23.244 19.653 20.834 22.799 19.92C22.856 19.9 27.726 18.434 37.63 22.608L37.63 21.902C27.641 17.749 22.813 19.231 22.609 19.3C19.214 20.2841 18.069 22.825 17.993 23.002C17.214 24.356 16.972 25.9431 16.972 27.401C16.972 29.776 17.618 31.816 17.662 31.953L18.863 35.9821C20.609 42.092 20.973 45.975 20.973 48.1591C20.973 49.717 20.788 50.407 20.782 50.426L20.685 50.7531L21.02 50.833C21.058 50.842 25.002 51.846 32.657 59.609L35.577 62.636C35.73 62.803 39.445 66.788 43.542 66.7401C43.781 66.769 46.522 66.998 49.032 64.5421C49.161 64.434 52.539 61.4771 53.935 52.018L53.277 52.018Z" fill="#237f3c" fill-rule="evenodd" opacity="1" stroke="none"/>
<path d="M62.504 45.551C71.049 49.598 76.687 50.073 78.371 50.116C77.408 48.546 73.825 43.061 62.506 36.022L62.506 35.263C75.746 43.356 79.094 50.0341 79.225 50.299L79.446 50.738L78.957 50.768C78.684 50.7841 72.738 51.074 62.504 46.273L62.504 45.551Z" fill="#237f3c" fill-rule="evenodd" opacity="1" stroke="none"/>
<path d="M68.634 44.497L69.05 46.035L72.238 47.876L73.364 45.9221L70.174 44.085L68.634 44.497Z" fill="#237f3c" fill-rule="evenodd" opacity="1" stroke="none"/>
<path d="M62.504 40.7061L69.343 44.652L69.124 45.0291L62.504 41.207L62.504 40.7061Z" fill="#237f3c" fill-rule="evenodd" opacity="1" stroke="none"/>
<path d="M46.854 52.004C48.225 61.11 51.508 64.017 51.54 64.045C53.896 66.351 56.516 66.086 56.543 66.0811L56.564 66.079L56.582 66.079C60.398 66.132 64.046 62.215 64.082 62.179L67.015 59.1411C73.731 52.333 77.591 50.6461 78.66 50.281C78.59 49.916 78.499 49.2271 78.499 48.127C78.499 45.884 78.883 41.961 80.648 35.788L81.854 31.7451C81.862 31.71 82.504 29.683 82.504 27.366C82.504 25.994 82.278 24.518 81.566 23.291L81.555 23.274L81.547 23.255C81.534 23.231 80.48 20.819 77.335 19.9041C77.276 19.889 72.407 18.4171 62.504 22.591L62.504 21.887C72.49 17.734 77.321 19.218 77.527 19.285C80.92 20.27 82.064 22.811 82.141 22.993C82.915 24.341 83.164 25.928 83.164 27.384C83.164 29.762 82.515 31.804 82.473 31.939L81.276 35.968C79.526 42.078 79.159 45.962 79.159 48.144C79.159 49.704 79.345 50.395 79.347 50.411L79.446 50.741L79.113 50.817C79.078 50.824 75.136 51.835 67.477 59.596L64.558 62.625C64.405 62.788 60.69 66.774 56.591 66.73C56.354 66.7531 53.613 66.9821 51.106 64.528C50.975 64.416 47.597 61.463 46.201 52.004L46.854 52.004Z" fill="#237f3c" fill-rule="evenodd" opacity="1" stroke="none"/>
<path d="M25.493 19.656C25.493 19.656 30.841 20.69 37.63 24.175L37.63 24.768C37.63 24.768 28.599 20.399 25.493 19.656" fill="#237f3c" fill-rule="evenodd" opacity="1" stroke="none"/>
<path d="M25.493 19.656L37.63 26.363L37.63 27.104C37.63 27.104 26.743 20.716 25.493 19.656" fill="#237f3c" fill-rule="evenodd" opacity="1" stroke="none"/>
<path d="M25.493 19.656C25.493 19.656 26.799 21.801 37.63 28.8101L37.63 29.515C37.63 29.515 28.528 23.738 25.493 19.656" fill="#237f3c" fill-rule="evenodd" opacity="1" stroke="none"/>
<path d="M74.644 19.656C74.644 19.656 69.296 20.69 62.506 24.175L62.506 24.768C62.506 24.768 71.534 20.399 74.644 19.656" fill="#237f3c" fill-rule="evenodd" opacity="1" stroke="none"/>
<path d="M74.644 19.656L62.506 26.363L62.506 27.104C62.506 27.104 73.392 20.716 74.644 19.656" fill="#237f3c" fill-rule="evenodd" opacity="1" stroke="none"/>
<path d="M74.644 19.656C74.644 19.656 73.333 21.801 62.506 28.8101L62.506 29.515C62.506 29.515 71.61 23.738 74.644 19.656" fill="#237f3c" fill-rule="evenodd" opacity="1" stroke="none"/>
<path d="M50.013 62.1851C50.013 62.1851 48.699 58.846 48.045 52.018L48.607 52.018C48.607 52.018 48.772 55.829 50.013 62.1851" fill="#237f3c" fill-rule="evenodd" opacity="1" stroke="none"/>
<path d="M50.271 52.018L50.013 62.1851L49.761 52.018L50.271 52.018Z" fill="#237f3c" fill-rule="evenodd" opacity="1" stroke="none"/>
<path d="M50.013 62.1851C50.013 62.1851 51.133 58.629 51.601 52.018L52.101 52.018C52.101 52.018 51.145 60.263 50.013 62.1851" fill="#237f3c" fill-rule="evenodd" opacity="1" stroke="none"/>
<path d="M40.653 25.847C40.653 26.317 40.272 26.701 39.802 26.701C39.331 26.701 38.955 26.317 38.955 25.847L38.955 22.007C38.955 21.537 39.331 21.158 39.802 21.158L48.797 21.158C49.034 21.158 49.228 20.967 49.228 20.7321L49.228 20.125C49.228 19.656 49.609 19.275 50.078 19.275C50.547 19.275 50.925 19.656 50.925 20.125L50.925 20.7321C50.925 20.967 51.119 21.158 51.349 21.158L60.347 21.158C60.813 21.158 61.198 21.537 61.198 22.007L61.198 25.847C61.198 26.317 60.813 26.701 60.347 26.701C59.876 26.701 59.497 26.317 59.497 25.847L59.497 23.283C59.497 23.05 59.306 22.859 59.071 22.859L55.812 22.859C55.578 22.859 55.385 23.05 55.385 23.283L55.385 25.847C55.385 26.317 55.008 26.701 54.538 26.701C54.066 26.701 53.688 26.317 53.688 25.847L53.688 23.283C53.688 23.05 53.499 22.859 53.263 22.859L46.888 22.859C46.652 22.859 46.46 23.05 46.46 23.283L46.46 25.847C46.46 26.317 46.082 26.701 45.614 26.701C45.141 26.701 44.762 26.317 44.762 25.847L44.762 23.283C44.762 23.05 44.573 22.859 44.335 22.859L41.078 22.859C40.844 22.859 40.653 23.05 40.653 23.283L40.653 25.847Z" fill="#237f3c" fill-rule="evenodd" opacity="1" stroke="none"/>
<path d="M38.955 47.376C38.955 47.845 39.331 48.222 39.802 48.222C40.272 48.222 40.653 47.845 40.653 47.376L40.653 39.237C40.653 39 40.844 38.8101 41.078 38.8101L59.071 38.8101C59.306 38.8101 59.497 39 59.497 39.237L59.497 47.376C59.497 47.845 59.876 48.222 60.347 48.222C60.813 48.222 61.198 47.845 61.198 47.376L61.198 37.959C61.198 37.4901 60.813 37.112 60.347 37.112L39.802 37.112C39.331 37.112 38.955 37.4901 38.955 37.959L38.955 47.376Z" fill="#237f3c" fill-rule="evenodd" opacity="1" stroke="none"/>
<path d="M56.35 34.584C55.882 34.584 55.499 34.963 55.499 35.433C55.499 35.903 55.882 36.2841 56.35 36.2841L60.347 36.2841C60.813 36.2841 61.198 35.903 61.198 35.433L61.198 28.479C61.198 28.0081 60.813 27.627 60.347 27.627C59.876 27.627 59.497 28.0081 59.497 28.479L59.497 28.702C59.497 28.938 59.306 29.13 59.071 29.13L56.35 29.13C55.882 29.13 55.499 29.51 55.499 29.98C55.499 30.447 55.882 30.829 56.35 30.829L58.965 30.829C59.256 30.829 59.497 31.065 59.497 31.36C59.497 31.653 59.256 31.8911 58.965 31.8911L56.35 31.8911C55.882 31.8911 55.499 32.27 55.499 32.741C55.499 33.212 55.882 33.591 56.35 33.591L58.996 33.591C59.276 33.591 59.497 33.814 59.497 34.087C59.497 34.362 59.276 34.584 58.996 34.584L56.35 34.584Z" fill="#237f3c" fill-rule="evenodd" opacity="1" stroke="none"/>
<path d="M38.955 28.479C38.955 28.0081 39.331 27.627 39.802 27.627C40.272 27.627 40.653 28.0081 40.653 28.479L40.653 28.702C40.653 28.939 40.844 29.13 41.078 29.13L43.724 29.13C44.188 29.13 44.567 29.51 44.567 29.98C44.567 30.447 44.188 30.829 43.724 30.829L41.183 30.829C40.893 30.829 40.653 31.065 40.653 31.36C40.653 31.653 40.893 31.8911 41.183 31.8911L43.724 31.8911C44.188 31.8911 44.567 32.27 44.567 32.741C44.567 33.212 44.188 33.591 43.724 33.591L41.151 33.591C40.879 33.591 40.653 33.814 40.653 34.087C40.653 34.362 40.879 34.584 41.151 34.584L43.724 34.584C44.188 34.584 44.567 34.963 44.567 35.433C44.567 35.903 44.188 36.2841 43.724 36.2841L39.802 36.2841C39.331 36.2841 38.955 35.903 38.955 35.432L38.955 28.479Z" fill="#237f3c" fill-rule="evenodd" opacity="1" stroke="none"/>
<path d="M52.838 42.07C52.838 41.836 52.649 41.6461 52.411 41.6461L47.739 41.6461C47.504 41.6461 47.315 41.836 47.315 42.07L47.315 42.7061C47.315 42.942 47.504 43.13 47.739 43.13L52.411 43.13C52.649 43.13 52.838 42.942 52.838 42.7061L52.838 42.07ZM57.94 46.957C57.94 47.428 57.555 47.806 57.085 47.806L50.925 47.806L50.925 49.864C50.925 50.332 50.547 50.71 50.078 50.71L47.553 50.71C47.085 50.71 46.706 50.332 46.706 49.864C46.706 49.393 47.085 49.009 47.553 49.009L48.797 49.009C49.034 49.009 49.228 48.824 49.228 48.587L49.228 47.806L43.063 47.806C42.594 47.806 42.212 47.428 42.212 46.957L42.212 40.5941C42.212 40.126 42.594 39.7451 43.063 39.7451C43.53 39.7451 43.913 40.126 43.913 40.5941L43.913 45.683C43.913 45.918 44.105 46.108 44.335 46.108L49.228 46.108L49.228 45.26C49.228 45.022 49.034 44.833 48.797 44.833L46.46 44.833C45.993 44.833 45.614 44.453 45.614 43.98L45.614 40.795C45.614 40.324 45.993 39.942 46.46 39.942L53.688 39.942C54.155 39.942 54.538 40.324 54.538 40.795L54.538 43.98C54.538 44.453 54.155 44.833 53.688 44.833L51.349 44.833C51.119 44.833 50.925 45.022 50.925 45.26L50.925 46.108L55.812 46.108C56.046 46.108 56.242 45.918 56.242 45.683L56.242 40.5941C56.242 40.126 56.619 39.7451 57.085 39.7451C57.555 39.7451 57.94 40.126 57.94 40.5941L57.94 46.957Z" fill="#237f3c" fill-rule="evenodd" opacity="1" stroke="none"/>
<path d="M49.069 31.7191C49.069 31.7191 48.922 31.801 48.922 31.936C48.922 32.076 49.069 32.157 49.069 32.157L49.69 32.514C49.69 32.514 49.909 32.6411 50.071 32.6411C50.229 32.6411 50.452 32.514 50.452 32.514L51.071 32.157C51.071 32.157 51.216 32.076 51.216 31.936C51.216 31.801 51.071 31.7191 51.071 31.7191L50.452 31.362C50.452 31.362 50.229 31.235 50.071 31.235C49.909 31.235 49.69 31.362 49.69 31.362L49.069 31.7191ZM47.379 36.2531C46.971 36.486 46.452 36.345 46.216 35.941C45.985 35.532 46.122 35.013 46.526 34.7791L47.995 33.932C47.995 33.932 48.14 33.851 48.14 33.715C48.14 33.576 47.995 33.5 47.995 33.5L46.564 32.671C46.564 32.671 46.109 32.399 46.109 31.936C46.109 31.475 46.564 31.203 46.564 31.203L47.995 30.3781C47.995 30.3781 48.14 30.2971 48.14 30.161C48.14 30.025 47.995 29.9431 47.995 29.9431L46.456 29.053C46.046 28.819 45.91 28.296 46.139 27.892C46.377 27.483 46.895 27.3441 47.304 27.5811L49.69 28.96C49.69 28.96 49.909 29.086 50.071 29.086C50.229 29.086 50.452 28.96 50.452 28.96L52.765 27.626C53.17 27.389 53.688 27.5291 53.926 27.9351C54.157 28.342 54.02 28.862 53.613 29.097L52.143 29.9431C52.143 29.9431 51.999 30.025 51.999 30.161C51.999 30.2971 52.143 30.3781 52.143 30.3781L53.58 31.203C53.58 31.203 54.037 31.475 54.037 31.936C54.037 32.399 53.58 32.671 53.58 32.671L52.143 33.5C52.143 33.5 51.999 33.576 51.999 33.715C51.999 33.851 52.143 33.932 52.143 33.932L53.594 34.765C53.999 35.001 54.14 35.5211 53.908 35.927C53.672 36.335 53.152 36.476 52.744 36.2401L50.452 34.916C50.452 34.916 50.229 34.791 50.071 34.791C49.909 34.791 49.69 34.916 49.69 34.916L47.379 36.2531Z" fill="#237f3c" fill-rule="evenodd" opacity="1" stroke="none"/>
<path d="M66.912 91.911L66.072 91.4431C65.755 91.2661 65.221 90.888 65.221 90.35C65.221 90.057 65.333 89.375 66.397 89.375C66.971 89.375 67.304 89.553 67.468 89.948C67.549 90.147 67.639 90.269 67.739 90.307L67.923 90.313L67.886 90.2401L67.747 89.163L67.716 89.148C67.699 89.138 67.323 88.952 66.551 88.952C65.237 88.952 64.353 89.627 64.353 90.629C64.353 91.442 64.985 91.987 65.514 92.299L66.51 92.879C67.234 93.3 67.333 93.729 67.333 94.135C67.333 94.638 66.951 95.1461 66.092 95.1461C65.116 95.1461 64.582 94.557 64.477 94.19C64.351 93.756 64.167 93.7451 64.133 93.747L64.062 93.756L64.267 95.196L64.294 95.213C64.464 95.311 65.1 95.567 65.957 95.567C67.331 95.567 68.253 94.846 68.253 93.77C68.253 93.02 67.811 92.413 66.912 91.911" fill="#2c292a" fill-rule="evenodd" opacity="1" stroke="none"/>
<path d="M5.492 89.0341L5.492 89.1021C5.492 89.309 5.664 89.332 5.81799 89.351C6.10699 89.393 6.50299 89.445 6.50299 90.538L6.50299 93.02C6.50299 95.0211 4.65701 95.046 4.582 95.046C4.50601 95.046 2.79501 95.0211 2.79501 93.02L2.79501 90.538C2.79501 89.444 3.15302 89.393 3.41 89.351C3.543 89.332 3.70801 89.309 3.70801 89.1021L3.70801 89.0341L1.11401 89.0341L1.11401 89.1021C1.11401 89.3051 1.25702 89.332 1.36902 89.351C1.569 89.388 1.87399 89.444 1.87399 90.538L1.87399 93.02C1.87399 95.451 4.55402 95.479 4.582 95.479C4.60602 95.479 7.01901 95.451 7.01901 93.02L7.01901 90.538C7.01901 89.444 7.33099 89.39 7.561 89.351C7.67999 89.332 7.82901 89.307 7.82901 89.1021L7.82901 89.0341L5.492 89.0341Z" fill="#2c292a" fill-rule="evenodd" opacity="1" stroke="none"/>
<path d="M25.868 89.3391C25.978 89.326 26.129 89.309 26.129 89.1021L26.129 89.0341L23.69 89.0341L23.69 89.1021C23.69 89.309 23.837 89.326 23.945 89.3391C24.145 89.362 24.446 89.397 24.446 90.489L24.446 94.027C24.446 95.118 24.145 95.152 23.947 95.176C23.837 95.188 23.69 95.204 23.69 95.413L23.69 95.479L26.129 95.479L26.129 95.413C26.129 95.204 25.978 95.188 25.868 95.176C25.671 95.152 25.369 95.118 25.369 94.027L25.369 90.489C25.369 89.397 25.671 89.362 25.868 89.3391" fill="#2c292a" fill-rule="evenodd" opacity="1" stroke="none"/>
<path d="M76.289 89.3391C76.398 89.326 76.547 89.309 76.547 89.1021L76.547 89.0341L74.11 89.0341L74.11 89.1021C74.11 89.309 74.257 89.326 74.367 89.3391C74.566 89.362 74.866 89.397 74.866 90.489L74.866 94.027C74.866 95.118 74.566 95.152 74.367 95.176C74.257 95.188 74.11 95.204 74.11 95.413L74.11 95.479L76.547 95.479L76.547 95.413C76.547 95.204 76.398 95.188 76.289 95.176C76.089 95.152 75.787 95.118 75.787 94.027L75.787 90.489C75.787 89.397 76.089 89.362 76.289 89.3391" fill="#2c292a" fill-rule="evenodd" opacity="1" stroke="none"/>
<path d="M35.621 89.0341L35.621 89.1021C35.621 89.3051 35.836 89.3571 36.028 89.401C36.249 89.454 36.379 89.4951 36.379 89.6281C36.374 89.8181 35.351 92.073 34.539 93.817L32.712 89.554C32.691 89.51 32.685 89.475 32.698 89.454C32.723 89.4 32.854 89.375 32.958 89.3571C33.128 89.324 33.336 89.283 33.336 89.1021L33.336 89.0341L30.896 89.0341L30.896 89.1021C30.896 89.289 31.082 89.3391 31.249 89.382C31.388 89.421 31.538 89.461 31.611 89.574L34.327 95.554L34.407 95.3521C34.671 94.761 36.94 89.649 36.95 89.625C37.124 89.454 37.272 89.413 37.392 89.38C37.526 89.343 37.65 89.309 37.65 89.1021L37.65 89.0341L35.621 89.0341Z" fill="#2c292a" fill-rule="evenodd" opacity="1" stroke="none"/>
<path d="M96.177 89.0341L96.177 89.1021C96.177 89.304 96.375 89.3571 96.55 89.401C96.749 89.452 96.87 89.494 96.87 89.6281C96.846 89.787 95.838 91.3571 95.409 92.026C95.409 92.026 95.318 92.1671 95.256 92.262C95.155 92.0811 93.723 89.549 93.723 89.549C93.71 89.524 93.707 89.501 93.707 89.4821C93.707 89.471 93.707 89.462 93.71 89.454C93.74 89.4 93.871 89.375 93.976 89.3571C94.143 89.324 94.35 89.283 94.35 89.1021L94.35 89.0341L91.911 89.0341L91.911 89.1021C91.911 89.289 92.097 89.3391 92.259 89.382C92.407 89.421 92.554 89.461 92.625 89.574L94.533 92.894C94.533 92.894 94.591 93.007 94.591 93.1071L94.591 94.027C94.591 95.118 94.29 95.152 94.09 95.176C93.984 95.188 93.832 95.204 93.832 95.413L93.832 95.479L96.274 95.479L96.274 95.413C96.274 95.204 96.124 95.188 96.013 95.176C95.816 95.152 95.514 95.118 95.514 94.027L95.514 92.973C95.514 92.825 95.602 92.675 95.604 92.6721L97.508 89.621C97.674 89.454 97.826 89.413 97.951 89.38C98.082 89.343 98.207 89.309 98.207 89.1021L98.207 89.0341L96.177 89.0341Z" fill="#2c292a" fill-rule="evenodd" opacity="1" stroke="none"/>
<path d="M16.399 89.0341L16.399 89.1021C16.399 89.309 16.561 89.332 16.707 89.351C16.981 89.393 17.362 89.445 17.362 90.538L17.358 93.598L13.554 89.0341L11.968 89.0341L11.968 89.1021C11.968 89.309 12.134 89.332 12.28 89.351C12.556 89.393 12.931 89.445 12.931 90.538L12.931 93.924C12.931 95.022 12.615 95.097 12.387 95.149C12.263 95.1801 12.124 95.211 12.124 95.413L12.124 95.479L14.41 95.479L14.41 95.413C14.41 95.211 14.249 95.178 14.104 95.149C13.828 95.095 13.449 95.0211 13.449 93.924L13.449 90.463L17.744 95.6931L17.875 95.885L17.875 95.853L17.877 95.854L17.875 95.635L17.875 90.538C17.875 89.444 18.19 89.39 18.416 89.351C18.538 89.332 18.685 89.307 18.685 89.1021L18.685 89.0341L16.399 89.0341Z" fill="#2c292a" fill-rule="evenodd" opacity="1" stroke="none"/>
<path d="M47.463 93.781C47.249 93.781 47.161 94.001 47.058 94.255C46.907 94.626 46.737 95.046 46.143 95.046L44.446 95.046C44.347 95.037 44.056 94.983 44.056 94.666L44.056 92.514L44.7 92.514C45.795 92.514 45.851 92.892 45.886 93.166C45.91 93.311 45.932 93.4771 46.139 93.4771L46.207 93.4771L46.207 91.037L46.139 91.037C45.932 91.037 45.91 91.201 45.886 91.346C45.851 91.622 45.795 91.997 44.7 91.997L44.056 91.997L44.056 90.041C44.056 89.552 44.433 89.479 44.549 89.47L46.041 89.47C46.63 89.47 46.711 89.796 46.785 90.085C46.835 90.2791 46.884 90.478 47.107 90.478L47.172 90.478L47.172 89.0341L42.377 89.0341L42.377 89.1021C42.377 89.313 42.528 89.323 42.637 89.326C42.85 89.337 43.132 89.35 43.132 90.438L43.132 94.076C43.132 95.164 42.85 95.178 42.637 95.189C42.528 95.194 42.377 95.2 42.377 95.413L42.377 95.479L47.267 95.479L47.543 93.781L47.463 93.781Z" fill="#2c292a" fill-rule="evenodd" opacity="1" stroke="none"/>
<path d="M87.87 89.043L86.143 89.043L86.143 89.0341L83.702 89.0341L83.702 89.043L81.978 89.043L81.867 90.486L81.939 90.486C82.153 90.486 82.243 90.3 82.341 90.106C82.493 89.811 82.661 89.475 83.256 89.475L84.258 89.475C84.372 89.609 84.461 89.889 84.461 90.489L84.461 94.027C84.461 95.118 84.164 95.152 83.961 95.176C83.854 95.188 83.702 95.204 83.702 95.413L83.702 95.479L86.143 95.479L86.143 95.413C86.143 95.204 85.995 95.188 85.884 95.176C85.685 95.152 85.385 95.118 85.385 94.027L85.385 90.489C85.385 89.889 85.475 89.609 85.591 89.475L86.589 89.475C87.187 89.475 87.354 89.811 87.504 90.106C87.602 90.3 87.697 90.486 87.907 90.486L87.981 90.486L87.87 89.043Z" fill="#2c292a" fill-rule="evenodd" opacity="1" stroke="none"/>
<path d="M56.985 90.729C56.985 90.946 56.889 92.032 55.072 92.032L54.6 92.032C54.562 92.032 54.556 91.996 54.556 91.973L54.556 89.603C54.56 89.561 54.665 89.4431 55.076 89.4171C55.757 89.375 56.27 89.512 56.597 89.822C56.955 90.157 56.985 90.599 56.985 90.729M58.019 94.705C57.367 93.908 56.468 92.385 56.459 92.373C56.429 92.323 56.431 92.301 56.433 92.2971C56.437 92.285 56.454 92.278 56.459 92.277C57.514 91.981 58.03 91.475 58.03 90.729C58.03 90.096 57.667 89.033 55.245 89.033L54.423 89.0341L54.331 89.033L52.875 89.0341L52.875 89.1021C52.875 89.313 53.028 89.323 53.136 89.326C53.347 89.337 53.632 89.35 53.632 90.438L53.632 94.027C53.632 95.118 53.332 95.152 53.134 95.176C53.023 95.188 52.875 95.204 52.875 95.413L52.875 95.479L55.314 95.479L55.314 95.413C55.314 95.204 55.165 95.188 55.055 95.176C54.857 95.152 54.554 95.118 54.554 94.027L54.556 92.4561C54.556 92.442 54.56 92.4301 54.566 92.424C54.571 92.423 55.102 92.425 55.102 92.425C55.173 92.431 55.444 92.486 55.72 92.888L56.951 94.7401C57.641 95.776 59.179 95.813 59.242 95.813C59.242 95.813 58.62 95.4431 58.019 94.705" fill="#2c292a" fill-rule="evenodd" opacity="1" stroke="none"/>
<path d="M20.371 74.304C23.34 74.304 24.694 77.098 24.694 79.696C24.694 82.825 22.835 85.183 20.371 85.183C17.457 85.183 15.933 82.504 15.933 79.858C15.933 76.689 17.842 74.304 20.371 74.304M25.032 75.457C23.908 74.2271 22.306 73.572 20.394 73.572C18.624 73.572 17.009 74.215 15.845 75.384C14.683 76.541 14.044 78.134 14.044 79.866C14.044 82.871 16.225 85.913 20.394 85.913C22.07 85.913 23.629 85.2921 24.777 84.157C25.935 83.002 26.579 81.4171 26.579 79.69C26.579 78.062 26.03 76.559 25.032 75.457" fill="#2c292a" fill-rule="evenodd" opacity="1" stroke="none"/>
<path d="M93.885 74.304C95.22 74.304 96.339 74.874 97.117 75.946C97.82 76.9221 98.207 78.252 98.207 79.696C98.207 81.223 97.76 82.627 96.935 83.644C96.142 84.638 95.054 85.183 93.885 85.183C90.973 85.183 89.447 82.504 89.447 79.858C89.447 76.689 91.355 74.304 93.885 74.304M93.906 73.572C92.139 73.572 90.525 74.215 89.356 75.384C88.198 76.541 87.562 78.134 87.562 79.866C87.562 82.871 89.743 85.913 93.906 85.913C95.587 85.913 97.146 85.2921 98.29 84.157C99.456 83.002 100.093 81.4171 100.093 79.69C100.093 76.744 98.157 73.572 93.906 73.572" fill="#2c292a" fill-rule="evenodd" opacity="1" stroke="none"/>
<path d="M59.626 76.444C60.05 77.4301 60.826 79.212 61.542 80.882L57.737 80.882C58.334 79.453 59.021 77.843 59.626 76.444M66.057 85.327C65.781 85.233 65.499 85.244 65.358 85.024L60.366 73.093L58.992 74.961L59.017 75.028C59.021 75.028 59.111 75.287 59.025 75.488C59.023 75.4951 59.021 75.506 59.017 75.515C57.815 78.372 55.138 84.871 55.124 84.912C54.785 85.25 54.361 85.327 54.02 85.3911C53.662 85.4561 53.294 85.41 53.294 85.806L53.294 85.936L57.48 85.936L57.48 85.806C57.48 85.421 57.098 85.427 56.795 85.346C56.435 85.244 56.215 85.17 56.215 84.9041C56.221 84.73 56.678 83.444 57.317 81.897L61.978 81.897C62.684 83.525 63.249 84.949 63.249 84.949C63.275 85.007 63.287 85.054 63.287 85.095C63.287 85.118 63.287 85.139 63.275 85.158C63.222 85.2711 62.98 85.337 62.756 85.394C62.424 85.481 62.051 85.466 62.051 85.806L62.051 85.936L66.73 85.936L66.73 85.806C66.73 85.45 66.387 85.441 66.057 85.327" fill="#2c292a" fill-rule="evenodd" opacity="1" stroke="none"/>
<path d="M82.349 84.07C81.29 85.024 79.767 85.394 77.809 85.183C76.856 85.0811 76.807 84.413 76.807 83.2401L76.807 76.262C76.807 75.116 76.856 74.407 77.809 74.306C79.767 74.098 81.292 74.476 82.349 75.428C83.399 76.372 83.954 77.868 83.954 79.75C83.954 81.637 83.399 83.1281 82.349 84.07M78.935 73.588L73.583 73.588L73.583 73.701C73.583 74.108 73.874 74.01 74.088 74.022C74.49 74.04 75.039 74.178 75.039 76.262L75.039 83.2401C75.039 85.326 74.49 85.349 74.088 85.3701C73.874 85.381 73.583 85.394 73.583 85.802L73.583 85.931L76.367 85.931L78.126 85.936C83.421 85.936 86.11 83.854 86.11 79.75C86.11 75.863 83.612 73.588 78.935 73.588" fill="#2c292a" fill-rule="evenodd" opacity="1" stroke="none"/>
<path d="M71.819 74.075C72.033 74.0341 72.305 74.096 72.305 73.7061L72.305 73.588L67.628 73.588L67.628 73.7061C67.628 74.096 67.898 74.0341 68.114 74.075C68.499 74.144 69.08 74.363 69.08 76.465L69.08 83.052C69.08 85.148 68.499 85.257 68.114 85.328C67.898 85.362 67.628 85.414 67.628 85.806L67.628 85.936L72.305 85.936L72.305 85.806C72.305 85.414 72.033 85.362 71.819 85.328C71.432 85.257 70.852 85.148 70.852 83.052L70.852 76.465C70.852 74.363 71.432 74.144 71.819 74.075" fill="#2c292a" fill-rule="evenodd" opacity="1" stroke="none"/>
<path d="M12.673 74.049C12.883 74.026 13.164 74.103 13.164 73.7061L13.164 73.588L8.487 73.588L8.487 73.7061C8.487 74.103 8.77499 74.026 8.98801 74.049C9.367 74.0941 9.94202 74.2711 9.94202 76.363L9.94202 79.044L3.224 79.044L3.224 76.363C3.224 74.2711 3.80099 74.0941 4.18201 74.049C4.38901 74.026 4.67502 74.103 4.67502 73.7061L4.67502 73.588L0 73.588L0 73.7061C0 74.103 0.283997 74.026 0.493011 74.049C0.877014 74.0941 1.452 74.2711 1.452 76.363L1.452 83.148C1.452 85.241 0.877014 85.418 0.493011 85.462C0.283997 85.487 0 85.405 0 85.806L0 85.936L4.67502 85.936L4.67502 85.806C4.67502 85.405 4.38901 85.487 4.18201 85.462C3.80099 85.418 3.224 85.241 3.224 83.148L3.224 80.0551L9.94202 80.0551L9.94202 83.148C9.94202 85.241 9.367 85.418 8.98801 85.462C8.77499 85.487 8.487 85.405 8.487 85.806L8.487 85.936L13.164 85.936L13.164 85.806C13.164 85.405 12.883 85.487 12.673 85.462C12.29 85.418 11.714 85.241 11.714 83.148L11.714 76.363C11.714 74.2711 12.29 74.0941 12.673 74.049" fill="#2c292a" fill-rule="evenodd" opacity="1" stroke="none"/>
<path d="M38.757 85.366C38.504 85.2921 38.221 85.208 38.017 84.991L35.496 82.101C34.421 80.897 33.402 79.759 32.799 79.156C32.769 79.127 32.755 79.095 32.755 79.056C32.758 78.938 32.893 78.7921 32.943 78.744C32.943 78.744 38.152 74.173 38.432 74.0941C38.776 73.9951 39.354 74.188 39.354 73.7061L39.354 73.588L34.97 73.588L34.97 73.7061C34.97 74.218 36.391 73.923 36.391 74.389C36.391 74.578 31.122 78.948 31.122 78.948C30.944 79.085 30.797 79.1411 30.702 79.1151C30.611 79.088 30.57 78.975 30.557 78.933L30.553 78.9351L30.553 76.2661C30.553 74.181 31.106 74.045 31.503 74.026C31.719 74.014 32.01 74.113 32.01 73.7061L32.01 73.588L27.33 73.588L27.33 73.7061C27.33 74.113 27.622 74.014 27.834 74.026C28.234 74.045 28.786 74.181 28.786 76.2661L28.786 83.2451C28.786 85.33 28.234 85.4641 27.834 85.487C27.622 85.497 27.33 85.399 27.33 85.806L27.33 85.936L32.01 85.936L32.01 85.806C32.01 85.399 31.719 85.497 31.503 85.487C31.106 85.4641 30.553 85.33 30.553 83.2451L30.553 80.927C30.553 80.92 30.558 80.728 30.762 80.554L31.034 80.33C31.137 80.267 31.303 80.204 31.438 80.343C32.652 81.576 35.256 84.554 35.716 85.0811C35.843 85.225 35.832 85.274 35.832 85.274C35.832 85.484 35.564 85.3911 35.433 85.418C35.118 85.487 34.727 85.393 34.727 85.806L34.727 85.936L39.401 85.936L39.401 85.806C39.401 85.439 39.075 85.4561 38.757 85.366" fill="#2c292a" fill-rule="evenodd" opacity="1" stroke="none"/>
<path d="M51.833 85.366C51.582 85.2921 51.299 85.208 51.095 84.991L48.574 82.101C47.499 80.897 46.479 79.759 45.878 79.156C45.847 79.127 45.833 79.095 45.833 79.056C45.837 78.938 45.972 78.7921 46.023 78.744C46.023 78.744 51.231 74.173 51.511 74.0941C51.854 73.9951 52.432 74.188 52.432 73.7061L52.432 73.588L48.048 73.588L48.048 73.7061C48.048 74.218 49.47 73.923 49.47 74.389C49.47 74.578 44.201 78.948 44.201 78.948C44.023 79.085 43.874 79.1411 43.781 79.1151C43.691 79.088 43.646 78.975 43.633 78.933L43.631 78.9351L43.631 76.2661C43.631 74.181 44.184 74.045 44.582 74.026C44.797 74.014 45.086 74.113 45.086 73.7061L45.086 73.588L40.408 73.588L40.408 73.7061C40.408 74.113 40.701 74.014 40.913 74.026C41.313 74.045 41.865 74.181 41.865 76.2661L41.865 83.2451C41.865 85.33 41.313 85.4641 40.913 85.487C40.701 85.497 40.408 85.399 40.408 85.806L40.408 85.936L45.086 85.936L45.086 85.806C45.086 85.399 44.797 85.497 44.582 85.487C44.184 85.4641 43.631 85.33 43.631 83.2451L43.631 80.927C43.631 80.92 43.637 80.728 43.839 80.554L44.114 80.33C44.215 80.267 44.383 80.204 44.517 80.343C45.731 81.576 48.336 84.554 48.794 85.0811C48.922 85.225 48.91 85.274 48.91 85.274C48.91 85.484 48.643 85.3911 48.509 85.418C48.198 85.487 47.805 85.393 47.805 85.806L47.805 85.936L52.48 85.936L52.48 85.806C52.48 85.439 52.154 85.4561 51.833 85.366" fill="#2c292a" fill-rule="evenodd" opacity="1" stroke="none"/>
</g>
</g>
</g>
</svg>
