<svg xmlns="http://www.w3.org/2000/svg" viewBox="0 0 85.67 96.67"><defs><style>.cls-1{fill:#fff;}.cls-2{fill:#007f2d;}.cls-3{fill:#231815;}.cls-4{fill:#040000;}</style></defs><g id="レイヤー_2" data-name="レイヤー 2"><g id="レイヤー_1-2" data-name="レイヤー 1"><rect class="cls-1" width="85.67" height="96.67"/><g id="レイヤー_2-2" data-name="レイヤー 2"><g id="レイヤー_1-2-2" data-name="レイヤー 1-2"><path class="cls-2" d="M54.4,31.68a45.79,45.79,0,0,0,11-9.54c4-4.76,2.72-8.37,2.67-8.52C66.58,8.4,60.27,7,60,6.92L53.6,5.44A31.17,31.17,0,0,1,42.2.32L42,.14,41.79.3a31,31,0,0,1-11.4,5.14L24,7c-.26.06-6.56,1.48-8.06,6.72,0,.13-1.31,3.74,2.68,8.51a45.93,45.93,0,0,0,11.09,9.57V31a45.12,45.12,0,0,1-10.58-9.2,10.16,10.16,0,0,1-2.76-6.52,4.36,4.36,0,0,1,.18-1.39C18,9,24.08,7.59,24.14,7.58l6.42-1.51A32.4,32.4,0,0,0,42,1a32.44,32.44,0,0,0,11.45,5.1l6.41,1.51c.07,0,6.2,1.4,7.59,6.27a4.86,4.86,0,0,1,.18,1.42,10.16,10.16,0,0,1-2.74,6.5A44.94,44.94,0,0,1,54.4,30.92Z"/><path class="cls-2" d="M41.73.55c-.16.24-3.94,6.1-4.5,19.47h.64C38.34,8.92,41.12,3,42,1.37c.87,1.61,3.65,7.55,4.12,18.68h.64C46.2,6.65,42.43.79,42.26.55L42,.14Z"/><polygon class="cls-2" points="41.99 12.54 40.88 11.42 40.88 7.76 43.11 7.76 43.11 11.42 41.99 12.54"/><rect class="cls-2" x="41.78" y="11.86" width="0.43" height="6.28"/><path class="cls-2" d="M29.69,45.42c-8.49,4-14.09,4.49-15.77,4.53,1-1.56,4.52-7,15.77-14V35.2c-13.16,8-16.48,14.67-16.61,14.94l-.22.43h.48c.27,0,6.18.3,16.35-4.47Z"/><polygon class="cls-2" points="23.59 44.37 23.19 45.89 20.02 47.72 18.9 45.79 22.07 43.96 23.59 44.37"/><polygon class="cls-2" points="29.69 40.6 22.9 44.52 23.11 44.89 29.69 41.09 29.69 40.6"/><path class="cls-2" d="M45.24,51.82c-1.36,9-4.63,11.94-4.66,12a6.66,6.66,0,0,1-5,2h0c-3.79,0-7.42-3.84-7.45-3.88l-2.91-3c-6.69-6.8-10.52-8.47-11.58-8.8A11.73,11.73,0,0,0,13.8,48a46.46,46.46,0,0,0-2.14-12.26l-1.2-4a16.35,16.35,0,0,1-.64-4.35,8,8,0,0,1,.93-4.05h0A6.65,6.65,0,0,1,15,19.93c.06,0,4.9-1.48,14.74,2.67v-.7c-10-4.13-14.74-2.65-15-2.59A7.2,7.2,0,0,0,10.18,23a8.75,8.75,0,0,0-1,4.37,15.79,15.79,0,0,0,.69,4.53l1.19,4A45.64,45.64,0,0,1,13.16,48,10,10,0,0,1,13,50.24l-.09.33.33.08s4,1,11.56,8.72l2.9,3c.15.16,3.84,4.12,7.92,4.08A7.13,7.13,0,0,0,41,64.27c.12-.11,3.48-3,4.87-12.45Z"/><path class="cls-2" d="M54.4,45.4c8.5,4,14.1,4.49,15.77,4.53-1-1.56-4.52-7-15.77-14v-.79c13.16,8.08,16.49,14.71,16.6,15l.22.44h-.49c-.27,0-6.18.31-16.35-4.47Z"/><polygon class="cls-2" points="60.5 44.35 60.91 45.88 64.08 47.71 65.19 45.77 62.03 43.94 60.5 44.35"/><polygon class="cls-2" points="54.4 40.59 61.2 44.51 60.98 44.88 54.4 41.08 54.4 40.59"/><path class="cls-2" d="M38.86,51.81c1.35,9,4.62,11.94,4.65,12a6.66,6.66,0,0,0,5,2h0c3.79.06,7.42-3.83,7.45-3.87l2.91-3c6.69-6.8,10.52-8.48,11.59-8.8A11.73,11.73,0,0,1,70.3,48a46.19,46.19,0,0,1,2.13-12.27l1.2-4a16.35,16.35,0,0,0,.64-4.35,8,8,0,0,0-.93-4.05h0A6.51,6.51,0,0,0,69.16,20c-.06,0-4.89-1.48-14.74,2.67V22c9.93-4.12,14.73-2.65,14.93-2.58a7.19,7.19,0,0,1,4.59,3.68,8.86,8.86,0,0,1,1,4.37A15.67,15.67,0,0,1,74.25,32l-1.19,4A45.89,45.89,0,0,0,71,48a10.05,10.05,0,0,0,.19,2.26l.1.32-.33.08s-4,1-11.57,8.72l-2.9,3c-.15.17-3.84,4.12-7.91,4.08a7.11,7.11,0,0,1-5.45-2.19c-.13-.11-3.49-3-4.87-12.44Z"/><path class="cls-2" d="M17.63,19.67a50.27,50.27,0,0,1,12.06,4.47v.59s-9-4.34-12.06-5.08"/><path class="cls-2" d="M17.63,19.67l12.06,6.66v.74s-10.82-6.35-12.06-7.4"/><path class="cls-2" d="M17.63,19.67s1.3,2.13,12.06,9.1v.7s-9-5.74-12.06-9.8"/><path class="cls-2" d="M66.46,19.67A50.27,50.27,0,0,0,54.4,24.14v.59s9-4.34,12.06-5.08"/><path class="cls-2" d="M66.46,19.67,54.4,26.33v.74s10.83-6.35,12.06-7.4"/><path class="cls-2" d="M66.46,19.67s-1.29,2.13-12.06,9.1v.7s9.05-5.74,12.06-9.8"/><path class="cls-2" d="M42,61.93a41,41,0,0,1-2-10.11h.55A76.44,76.44,0,0,0,42,61.93"/><polygon class="cls-2" points="42.25 51.82 41.99 61.92 41.74 51.82 42.25 51.82"/><path class="cls-2" d="M42,61.93a48.6,48.6,0,0,0,1.57-10.11h.5S43.07,60,42,61.93"/><path class="cls-2" d="M32.69,25.82A.85.85,0,1,1,31,26a.61.61,0,0,1,0-.19V22a.85.85,0,0,1,.85-.85h8.94a.42.42,0,0,0,.42-.42v-.6a.85.85,0,0,1,.75-.93.84.84,0,0,1,.94.75.54.54,0,0,1,0,.18v.6a.42.42,0,0,0,.42.42h8.94a.85.85,0,0,1,.85.85v3.81a.85.85,0,0,1-.85.85.84.84,0,0,1-.84-.84h0V23.27a.42.42,0,0,0-.42-.42H47.76a.43.43,0,0,0-.43.41h0v2.55a.85.85,0,1,1-1.69.19.61.61,0,0,1,0-.19V23.27a.42.42,0,0,0-.42-.42H38.89a.43.43,0,0,0-.43.41h0v2.55a.83.83,0,0,1-.83.85h0a.85.85,0,0,1-.85-.85V23.27a.42.42,0,0,0-.42-.42H33.12a.43.43,0,0,0-.43.41h0Z"/><path class="cls-2" d="M31,47.21a.85.85,0,1,0,1.69.19.61.61,0,0,0,0-.19V39.14a.42.42,0,0,1,.42-.42H51a.43.43,0,0,1,.43.41h0v8.09a.83.83,0,0,0,.83.85h0a.85.85,0,0,0,.85-.85V37.85a.85.85,0,0,0-.85-.84H31.85a.85.85,0,0,0-.85.84Z"/><path class="cls-2" d="M48.29,34.5a.85.85,0,1,0-.18,1.69.54.54,0,0,0,.18,0h4a.85.85,0,0,0,.85-.84V28.44a.85.85,0,0,0-1.69,0h0v.22a.42.42,0,0,1-.42.42H48.32a.85.85,0,1,0-.18,1.69.54.54,0,0,0,.18,0h2.6a.53.53,0,0,1,.53.53.53.53,0,0,1-.53.53h-2.6a.85.85,0,0,0-.85.83h0a.85.85,0,0,0,.85.85H51a.5.5,0,0,1,.5.5.5.5,0,0,1-.5.5Z"/><path class="cls-2" d="M31,28.44a.85.85,0,0,1,.75-.93.84.84,0,0,1,.94.75.54.54,0,0,1,0,.18v.22a.42.42,0,0,0,.42.42h2.63a.85.85,0,0,1,.75.94.83.83,0,0,1-.75.75H33.22a.53.53,0,0,0-.53.53.53.53,0,0,0,.53.53h2.52a.85.85,0,0,1,.84.84h0a.84.84,0,0,1-.84.85H33.18a.5.5,0,0,0-.5.5.5.5,0,0,0,.5.5h2.56a.85.85,0,0,1,.75.94.83.83,0,0,1-.75.75H31.85a.85.85,0,0,1-.85-.85V28.44Z"/><path class="cls-2" d="M49.87,46.79a.85.85,0,0,1-.85.85H42.9v2a.84.84,0,0,1-.84.84H39.55a.84.84,0,0,1,0-1.68h1.24a.42.42,0,0,0,.42-.42h0v-.73H35.09a.85.85,0,0,1-.85-.85V40.47a.85.85,0,0,1,1.69,0v5.06a.42.42,0,0,0,.42.42h4.86v-.81a.42.42,0,0,0-.42-.42H38.46a.84.84,0,0,1-.84-.85v-3.2a.86.86,0,0,1,.84-.84h7.19a.86.86,0,0,1,.84.84v3.17a.85.85,0,0,1-.85.85H43.32a.42.42,0,0,0-.42.42V46h4.86a.42.42,0,0,0,.42-.42V40.47a.85.85,0,0,1,1.69,0ZM44.8,41.94a.42.42,0,0,0-.42-.42H39.73a.42.42,0,0,0-.42.42v.63a.42.42,0,0,0,.41.43h4.66a.42.42,0,0,0,.42-.42h0Z"/><path class="cls-2" d="M39.37,36.14a.84.84,0,0,1-1.15-.31.85.85,0,0,1,.31-1.15L40,33.85a.26.26,0,0,0,.14-.21.3.3,0,0,0-.14-.22l-1.42-.82a.81.81,0,0,1-.38-1.08.82.82,0,0,1,.38-.38L40,30.32a.26.26,0,0,0,.14-.21.3.3,0,0,0-.14-.22L38.47,29a.85.85,0,1,1,.71-1.54l.13.07,2.37,1.37a.6.6,0,0,0,.76,0l2.3-1.32a.85.85,0,0,1,1.15.3h0a.85.85,0,0,1-.31,1.16l-1.46.84a.28.28,0,0,0-.12.25.26.26,0,0,0,.14.21l1.43.82a.84.84,0,0,1,.36,1.11.87.87,0,0,1-.36.35l-1.43.82a.3.3,0,0,0-.14.22.26.26,0,0,0,.14.21l1.44.84a.85.85,0,0,1,.31,1.15h0a.86.86,0,0,1-1.19.28h0l-2.27-1.32a.66.66,0,0,0-.76,0Zm1.68-4.51a.3.3,0,0,0-.14.22.28.28,0,0,0,.14.22l.62.35a.6.6,0,0,0,.76,0l.62-.35a.28.28,0,0,0,.14-.22.3.3,0,0,0-.14-.22l-.62-.35a.63.63,0,0,0-.76,0Z"/><path class="cls-3" d="M9.59,92.24a2.34,2.34,0,0,0-1.76-.72,2.34,2.34,0,0,0-2.41,2.39,2.29,2.29,0,0,0,2.26,2.31h.15a2.32,2.32,0,0,0,2.35-2.29v-.07a2.39,2.39,0,0,0-.59-1.61M7.82,91.8a1.79,1.79,0,0,1,1.64,2c0,1.19-.71,2.08-1.64,2.08A1.82,1.82,0,0,1,6.12,94a.17.17,0,0,0,0-.07,1.89,1.89,0,0,1,1.67-2.1h0"/><path class="cls-3" d="M35.75,91.52a2.34,2.34,0,0,0-2.41,2.39,2.27,2.27,0,0,0,2.24,2.31h.17a2.32,2.32,0,0,0,2.35-2.29v-.07a2.25,2.25,0,0,0-2.17-2.33h-.18m0,.28a1.44,1.44,0,0,1,1.22.63,2.59,2.59,0,0,1-.06,2.92,1.47,1.47,0,0,1-1.16.58A1.82,1.82,0,0,1,34.05,94a.17.17,0,0,0,0-.07,1.89,1.89,0,0,1,1.67-2.1h0"/><path class="cls-3" d="M25.17,96c-.11,0-.21,0-.27-.12L23,91.34l-.52.71h0a.25.25,0,0,1,0,.17h0C22,93.35,21,95.81,21,95.83a.67.67,0,0,1-.42.18c-.14,0-.28,0-.28.16h1.59c0-.15-.14-.14-.26-.17s-.22-.07-.22-.17a7.79,7.79,0,0,1,.42-1.14H23.6c.27.61.48,1.16.48,1.16v.05h0a.84.84,0,0,1-.19.09c-.08,0-.27,0-.27.16H25.4c0-.13-.13-.14-.26-.18M22.7,92.6c.16.37.45,1,.73,1.68H22l.72-1.68"/><path class="cls-3" d="M30.06,91.53H28c0,.16.11.12.19.13s.36.06.36.85v2.64c0,.8-.21.81-.36.81s-.19,0-.19.17h1.72c2,0,3-.79,3-2.35s-.95-2.34-2.73-2.34m1.3,4a2.11,2.11,0,0,1-1.73.42c-.36,0-.38-.29-.38-.74V92.55c0-.44,0-.71.38-.75a2.19,2.19,0,0,1,1.73.43,2.54,2.54,0,0,1,0,3.28"/><path class="cls-3" d="M27.36,91.72c.08,0,.18,0,.18-.15H25.77c0,.15.1.13.18.15s.37.1.37.9v2.52c0,.8-.22.84-.37.87s-.18,0-.18.18h1.77c0-.15-.1-.17-.18-.18s-.36-.09-.36-.87v-2.5c0-.8.22-.88.37-.9"/><path class="cls-3" d="M4.9,91.7c.08,0,.18,0,.18-.13H3.31c0,.16.11.13.19.13s.36.09.36.88v1H1.31v-1c0-.79.22-.86.36-.88s.19,0,.19-.13H.08c0,.16.11.13.19.13s.36.09.36.88v2.56c0,.8-.21.86-.36.88s-.19,0-.19.13H1.86c0-.15-.11-.12-.19-.13s-.36-.08-.36-.88V94H3.86v1.15c0,.8-.22.86-.36.88s-.19,0-.19.13H5.08C5.08,96,5,96,4.9,96s-.37-.08-.37-.88V92.58c0-.79.22-.86.37-.88"/><path class="cls-3" d="M14.8,96a.62.62,0,0,1-.28-.14l-1-1.1c-.4-.45-.79-.89-1-1.11h0l.07-.12s2-1.74,2.09-1.77.35,0,.35-.15H13.36c0,.2.54.09.54.26a18.14,18.14,0,0,1-2,1.73.17.17,0,0,1-.16.07.08.08,0,0,1-.05-.07h0v-1c0-.79.21-.85.36-.85s.19,0,.19-.13H10.46c0,.16.11.12.19.13s.37.06.37.85v2.65c0,.79-.21.84-.37.85s-.19,0-.19.12h1.78c0-.15-.11-.12-.19-.12s-.36-.06-.36-.85v-.88a.21.21,0,0,1,.07-.14l.11-.09H12c.46.46,1.45,1.6,1.63,1.8V96H13.5c-.05,0-.27,0-.27.15H15c0-.14-.13-.13-.25-.17"/><path class="cls-3" d="M19.77,96a.62.62,0,0,1-.28-.14l-1-1.1-1-1.11h0a.21.21,0,0,1,.07-.12s2-1.74,2.09-1.77.34,0,.34-.15H18.33c0,.2.54.09.54.26a18.14,18.14,0,0,1-2,1.73s-.12.08-.16.07-.05,0-.06-.07h0v-1c0-.79.21-.85.36-.85s.2,0,.2-.13H15.43c0,.16.11.12.19.13s.36.06.36.85v2.65c0,.79-.21.84-.36.85s-.19,0-.19.12h1.78c0-.15-.12-.12-.2-.12s-.36-.06-.36-.85v-.88a.17.17,0,0,1,.08-.14l.11-.09H17c.46.46,1.45,1.6,1.62,1.8.05,0,.05.07.05.07h-.15c-.05,0-.27,0-.27.15H20c0-.14-.12-.13-.24-.17"/><path class="cls-3" d="M70.35,93.62l-.61-.34c-.23-.13-.62-.4-.62-.79,0-.21.09-.71.86-.71.42,0,.66.13.78.42s.33.26.33.26L71,91.63h0a2.23,2.23,0,0,0-.85-.14c-1,0-1.6.49-1.6,1.22a1.49,1.49,0,0,0,.85,1.22l.72.42a1,1,0,0,1,.6.91c0,.37-.28.74-.9.74a1.19,1.19,0,0,1-1.18-.7c-.14-.41-.3-.31-.3-.31l.15,1h0a2.67,2.67,0,0,0,1.21.26c1,0,1.67-.53,1.67-1.31a1.57,1.57,0,0,0-1-1.36"/><path class="cls-3" d="M43.69,91.53h0c0,.15.13.12.24.14s.5.11.5.91v1.8a1.39,1.39,0,0,1-1.24,1.53,1.21,1.21,0,0,1-.19,0,1.33,1.33,0,0,1-1.31-1.35s0-.08,0-.13v-1.8c0-.8.26-.88.45-.91s.22,0,.22-.14H40.51c0,.15.1.12.18.14s.37.11.37.91v1.8c0,1.77,1.95,1.79,2,1.79a1.75,1.75,0,0,0,1.78-1.72V92.63c0-.8.22-.88.39-.91s.2,0,.2-.14h0Z"/><path class="cls-3" d="M52.94,91.71c.08,0,.19,0,.19-.13H51.36c0,.15.1.12.18.13s.37.09.37.88v2.55c0,.79-.22.86-.37.87s-.18,0-.18.13h1.77c0-.15-.11-.12-.19-.13s-.36-.08-.36-.87V92.59c0-.79.22-.86.36-.88"/><path class="cls-3" d="M73.94,91.71c.08,0,.19,0,.19-.13H72.35c0,.15.11.12.19.13s.36.09.36.88v2.55c0,.79-.21.86-.36.87s-.19,0-.19.13h1.78c0-.15-.11-.12-.19-.13s-.36-.08-.36-.87V92.59c0-.79.21-.86.36-.88"/><path class="cls-3" d="M57.29,91.53h0c0,.15.16.14.3.18s.25.06.25.16S57.09,93.69,56.5,95l-1.33-3.15v-.07a.44.44,0,0,1,.19-.07c.13,0,.28,0,.28-.14H53.85c0,.24.42.07.52.3l2,4.39.06-.14,1.85-4.21c.06-.14.23-.16.32-.18s.19,0,.19-.16h-1.5Z"/><path class="cls-3" d="M82.92,91.53h0c0,.15.14.14.27.18s.25,0,.23.16a17.31,17.31,0,0,1-1.06,1.79l-.11.17c-.08-.13-1.12-2-1.12-2h0a.48.48,0,0,1,.2-.07c.12,0,.27,0,.27-.14H79.81c0,.14.14.13.26.16a.54.54,0,0,1,.27.14l1.38,2.46a.38.38,0,0,1,0,.15v.61c0,.79-.22.86-.37.87s-.19,0-.19.13H83c0-.15-.11-.12-.19-.13s-.36-.08-.36-.87v-.77a.59.59,0,0,1,0-.23l1.39-2.27a.44.44,0,0,1,.32-.17c.09,0,.19,0,.19-.16H82.92Z"/><path class="cls-3" d="M49,91.53h0c0,.15.12.12.23.14s.48.11.48.91V94.8L46.9,91.53H45.74c0,.15.12.12.23.14s.47.11.47.91v2.56c0,.8-.23.9-.39.93s-.19,0-.19.15h1.66c0-.15-.12-.13-.22-.15s-.48-.13-.48-.93V92.57L50,96.38l.09.14h0V92.63c0-.8.23-.88.39-.91s.2,0,.2-.14h0Z"/><path class="cls-3" d="M62.83,95c-.16,0-.23.16-.3.35a.74.74,0,0,1-.67.58H60.63a.29.29,0,0,1-.28-.28V94.06h.47c.79,0,.83.28.86.48s0,.22.18.22h0V93h0c-.15,0-.17.12-.18.22s-.07.48-.86.48h-.47V92.26a.38.38,0,0,1,.35-.41h1.09a.5.5,0,0,1,.54.42v0c0,.14.07.28.24.28h0v-1H59.12c0,.15.11.16.19.16s.36,0,.36.81V95.2c0,.79-.2.8-.36.81s-.19,0-.19.16h3.56l.2-1.24Z"/><path class="cls-3" d="M79.34,91.53H75.05l-.08,1h0c.16,0,.22-.13.29-.27a.68.68,0,0,1,.67-.46h.73a1.17,1.17,0,0,1,.15.73v2.61c0,.8-.22.87-.37.88s-.18,0-.18.13H78c0-.15-.11-.12-.19-.13s-.37-.08-.37-.88V92.58a1.17,1.17,0,0,1,.15-.73h.73a.68.68,0,0,1,.67.46c.07.14.14.27.29.27h0Z"/><path class="cls-3" d="M67.22,95.66A18,18,0,0,1,66.08,94V93.9h0c.77-.21,1.15-.58,1.15-1.13s-.27-1.23-2-1.23H63.48c0,.15.11.16.18.16s.37,0,.37.81v2.63c0,.79-.22.9-.37.92s-.18-.07-.18.08h1.77c0-.15-.11-.07-.19-.08s-.36-.13-.36-.92V94h.38c.06,0,.25,0,.45.34l.9,1.34a2.16,2.16,0,0,0,1.67.78,3.39,3.39,0,0,1-.89-.8m-.76-2.9c0,.16-.06,1-1.39,1h-.34V91.94s.08-.11.38-.13a1.53,1.53,0,0,1,1.11.29,1,1,0,0,1,.27.66"/><path class="cls-4" d="M15.36,86.28a1.06,1.06,0,0,1-.26-.75V83.87h0l-.1.27h0c-.16.9-.65,2.69-2,2.69H11.6c-.84,0-1.37-.41-1.37-1.44V80.46a23.19,23.19,0,0,0,4-1.64,5.66,5.66,0,0,1,1-.36,3.3,3.3,0,0,0-1.88-1.77,13.94,13.94,0,0,1-3.14,3.7V74.88a2.32,2.32,0,0,1,.21-.89,2.53,2.53,0,0,0-2-.69s.05.57.05,3.59v8.49c0,2.2.6,3.15,2.68,3.15h3c1.79,0,1.92-1.47,1.15-2.25m-10.55-9v1.6H1.43A4.34,4.34,0,0,1,0,78.68a2,2,0,0,0,.35.92c.25.24,1.31,0,1.79,0H4.81v5.28A19.18,19.18,0,0,1,0,86.2a4.32,4.32,0,0,0,1.68,2,1.64,1.64,0,0,1,.47-.55,21.68,21.68,0,0,0,2.66-2.41v3.9c.91,0,1.75-.28,1.75-1V74.94a2.77,2.77,0,0,1,.18-.89,2.94,2.94,0,0,0-2-.75,29.7,29.7,0,0,1,.12,4"/><path class="cls-4" d="M36.19,76.23c.51,1.69,2.14,1.21,1.7-.33s-3.22-1.69-3.22-1.69a4.24,4.24,0,0,1,1.52,2m4.15.27h2.72v.28a4.27,4.27,0,0,1-.29,1.17H41.19a2.62,2.62,0,0,0-1.41-.48,12.2,12.2,0,0,1,.15,1.91v7.2c1,0,1.55-.1,1.62-.73h5v.73c1.06,0,1.63-.11,1.63-.85V79.44a1.1,1.1,0,0,1,.33-.92,3.19,3.19,0,0,0-1.41-1.18,1.44,1.44,0,0,1-.61.61H43a5.54,5.54,0,0,0,2-1.45h4.5a.61.61,0,0,0,.26-.43,4.07,4.07,0,0,0-1.52-1.24,2.11,2.11,0,0,1-1,1H45.52a5.32,5.32,0,0,0,1.21-.78,2.26,2.26,0,0,1,.59-.37,2.24,2.24,0,0,0-1.71-1.42,6.34,6.34,0,0,1-.53,1.7,5.32,5.32,0,0,1-.5.87H43a1.31,1.31,0,0,0,.11-.85C42.8,73.51,40,73.33,40,73.33a2.39,2.39,0,0,1,1.37,1.94,1.56,1.56,0,0,0,.2.56h-1.7a5.72,5.72,0,0,1-1.54-.21,3,3,0,0,0,.47.92c.26.24,1.06,0,1.54,0m6.16,8.6H41.56v-1.7H46.5Zm0-2.41H41.56V81H46.5Zm0-2.41H41.56v-1.7H46.5Zm3.39,6.84a55,55,0,0,1-8.51.18c-2.25-.2-2.87-1.34-3-2.15V81.46a1.34,1.34,0,0,1,.3-1A2.11,2.11,0,0,0,37,79.14c-.18.72-.54.8-.57.81h-.76a4.59,4.59,0,0,1-1.47-.21,2.33,2.33,0,0,0,.4.91c.25.25,1.06,0,1.54,0h.71v5.88l-.18.08a14.09,14.09,0,0,1-2.37.81,3.74,3.74,0,0,0,1.89,1.66c.14-.61.47-.84,1-1.55a7.87,7.87,0,0,0,.73-1.22,3.29,3.29,0,0,0,2.75,2.55A54.63,54.63,0,0,0,49,89a1.86,1.86,0,0,1,1-1.83"/><path class="cls-4" d="M67.1,87.6a12.88,12.88,0,0,1-6.93-8.38h6.48a.65.65,0,0,0,.27-.5A4.19,4.19,0,0,0,65,77.41a2.52,2.52,0,0,1-1,1.14H59.66a24.32,24.32,0,0,0,.23-3.41,4.87,4.87,0,0,1,.17-.93,4.34,4.34,0,0,0-2.47-.6,17.83,17.83,0,0,1,.16,5H53a4.29,4.29,0,0,1-1.42-.21,2,2,0,0,0,.35.91c.25.24,1,0,1.54,0h4.19a12.9,12.9,0,0,1-6.52,9.81s6.71-.77,8.37-9.64c1.08,7.2,5.64,9.66,5.64,9.66s-.15-.8,1.95-1.54"/><path class="cls-4" d="M19.14,76.24c.27,1.71,2,1.3,1.78-.31s-3.39-1.79-3.39-1.79a2.59,2.59,0,0,1,1.61,2.13M18,79.73c.3,1.56,1.86,1.06,1.58-.41s-2.95-1.65-2.95-1.65A2.81,2.81,0,0,1,18,79.73m1.71,5.07c.14-1.35.93-6,.93-6h0S20.08,80.72,19,84c-.49,1.52-.85.33-1.93.61,0,0,1.91.1,1.42,3.16a1.07,1.07,0,1,0,2.09.46,1.19,1.19,0,0,0,0-.46c-.19-1.67-1-1.69-.83-3m13-2.33s.27-.19.27-.4a3,3,0,0,0-1.2-1,1.66,1.66,0,0,1-.6.66V79.44a1.16,1.16,0,0,1,.34-1A3.53,3.53,0,0,0,30,77.18a1.84,1.84,0,0,1-.77.72H23.89a2.42,2.42,0,0,0-1-.59c.19-.31.35-.6.48-.86h8.51a.65.65,0,0,0,.26-.5,3.44,3.44,0,0,0-1.6-1.13,1.94,1.94,0,0,1-.88.93h-6a4.79,4.79,0,0,1,.76-1.45s-.42-.84-2.18-1.07a14.71,14.71,0,0,1-1.61,6.67,12.2,12.2,0,0,0,1.95-2.17l-.58,4h0a4.53,4.53,0,0,1-1.46-.21,2.31,2.31,0,0,0,.39.91c.17.16.59.09,1,0l-.72,5.23c1.09.1,1.71,0,1.88-.86l.05-.42h6a1.14,1.14,0,0,1-.28.49c-.62.62-2.8.36-2.8.36H26l.05.06c2,.24,2,1.69,2,1.69,1.75,0,2.57-.53,2.93-2.64h1.6s.26-.21.26-.41a3,3,0,0,0-1.21-1,2.06,2.06,0,0,1-.54.63c.09-.86.13-1.92.14-3.22h1.54m-7.27,3.36H23.21l.41-3.39h2.07Zm.32-4.06h-2l.38-3.14H26Zm3.53,4.06H27l.27-3.39h2.18a27.31,27.31,0,0,1-.22,3.39m.23-4.06h-2.1l.24-3.14h1.93v3.14"/><path class="cls-4" d="M72.54,75.78a1,1,0,0,0,2-.28h0c-.24-1.41-3.08-1.84-3.08-1.84a3.63,3.63,0,0,1,1,2.12m3.1-.24a1.07,1.07,0,1,0,2.14,0,1.27,1.27,0,0,0,0-.34c-.27-1.54-3.07-1.87-3.07-1.87a3.59,3.59,0,0,1,1,2.18m7.09,6.29a2.84,2.84,0,0,1-1,1.17H77.81a5.57,5.57,0,0,1,0-1,1.59,1.59,0,0,1,.15-.29,1.06,1.06,0,0,0-.23-.19,7.42,7.42,0,0,0,3.1-1.38,2.94,2.94,0,0,1,.75-.38.38.38,0,0,0-.09-.2,10.23,10.23,0,0,0,2.4-1.16,6.54,6.54,0,0,1,.59-.3,4.1,4.1,0,0,0-2-1.81,1.93,1.93,0,0,1-.66.7H78.46a9.12,9.12,0,0,0,2.82-1.66,2.19,2.19,0,0,1,.62-.42,3.65,3.65,0,0,0-2.38-1.74A7.68,7.68,0,0,1,78,77H71.15a11.76,11.76,0,0,0-.31-1.43,4.09,4.09,0,0,1-1.35,2.87c-1.6,1.2-.26,2.92,1.14,1.67a3,3,0,0,0,.59-2.42h11a6.26,6.26,0,0,1-.91,1.64,3.07,3.07,0,0,0-1.44-1.2,1.19,1.19,0,0,1-.58.59H73.62a4,4,0,0,1-1.45-.21,2,2,0,0,0,.36.93c.26.25,1.08,0,1.57,0h5.21a6.3,6.3,0,0,1-1.66,2A3.44,3.44,0,0,0,75.82,81a12.31,12.31,0,0,1,.26,2H70.23a3.42,3.42,0,0,1-1.45-.22,2.12,2.12,0,0,0,.36.94c.26.25,1.08,0,1.57,0H76.1c0,.43,0,.86,0,1.28-.12,1.35-.28,1.75-.42,1.85a13.28,13.28,0,0,1-3.08-.27h-.07a.08.08,0,0,0,0,.07,2.91,2.91,0,0,1,2.32,2.47c2.46,0,3-1,2.95-3.64V83.74h6.47a.73.73,0,0,0,.27-.5,4,4,0,0,0-1.84-1.38"/></g></g></g></g></svg>